<?xml version="1.0" encoding="UTF-8"?>
<svg id="_图层_1" data-name="图层 1" xmlns="http://www.w3.org/2000/svg" viewBox="0 0 580 820">
  <defs>
    <style>
      .cls-1 {
        fill: #fff;
      }

      .cls-2 {
        fill: #8ec5ec;
      }

      .cls-3 {
        opacity: .16;
      }
    </style>
  </defs>
  <g class="cls-3">
    <path class="cls-2" d="M565.43,10.88h-5.66c.3-.43,.45-1.01,.31-1.74-.16-2.6-2.83-6.66-2.83-6.66,0,0,3.72-1.45,4.9-.3,1.19,1.31,3.42,6.82,3.27,8.7h0Zm-9.52,0h-3.72c.16-.3,.3-.43,.45-.72,2.22-2.47,2.68-.73,3.27,.72h0Zm-12.48,0c1.78-3.62,7.28-6.81,9.06-8.7l-1.64-.57-2.08,.43s-7.43,4.35-9.36,8.84h4.01Zm-12.49,0h-2.38c-1.92-2.03-5.19-3.77-9.21-4.35l-1.47-.44v-1.16s8.76,0,12.76,5.51c.16,.14,.16,.29,.3,.43h0Zm-3.71,0c-1.94-1.74-4.76-3.05-7.89-3.77-4.16-.87-8.03,.72-12.33,3.77h6.39c3.12-1.59,3.72-1.02,3.72-1.02-.89-.14-2.23,.3-3.57,1.02h4.32c.3-.14,.59-.29,.89-.3,1.64-.43,3.57-.43,5.05,.3h3.43Zm-29.88,0h-13.37c-1.05-.87-1.49-.87-3.43-1.45-2.37-.87-2.67-.87-2.67-.87,0,0,4.31-3.47,7.58-4.06,3.12-.59,8.47,1.16,8.47,1.16,0,0,4.01-4.49,5.95-.58,0,0,4.31,.87,4.76,2.46,.3,1.59-1.05,1.88-1.05,1.88,0,0-3.42-3.47-5.06-1.88-1.19,1.31-1.78,2.03-1.19,3.33h0Zm-24.53,0h-2.08c.74-.29,1.49-.14,2.08,0h0Zm-8.17,0h-17.69c-.6-3.33-4.31-4.35-7.59-3.33-3.26,1.01-4.9,2.47-4.9,2.47l-1.62-1.9,9.51-6.94s2.23-.15,4.61-.15c2.53,0,7.28,1.02,7.28,1.02,0,0,.29,1.89,3.71,5.36,2.23,2.76,6.1,3.33,6.7,3.48h0Zm-38.21,0h-6.24c-.73-.59-1.62-1.3-2.53-2.03-2.08-2.17-7.42-2.17-9.66,0-.89,.72-1.63,1.44-2.38,2.03h-6.39c7.88-6.52,9.37-7.97,9.37-7.97,1.04-2.32,1.62-2.76,2.08-2.9l3.72,.43,2.67,2.47s1.65,1.45,9.37,7.97h0Zm-48.01,0h-17.83c.73-.15,4.61-.72,6.83-3.48,3.43-3.49,3.72-5.36,3.72-5.36,0,0,4.75-1.02,7.14-1.02,2.52,0,4.75,.15,4.75,.15l9.51,6.96-1.62,1.88s-1.64-1.45-4.9-2.47c-3.28-1.02-6.99,0-7.59,3.33h0Zm-24.08,0h-2.08c.73-.15,1.33-.29,2.08,0h0Zm-13.38,0h-13.54c.76-1.3,.16-2.03-1.03-3.33-1.62-1.59-5.2,1.88-5.2,1.88,0,0-1.33-.29-.9-1.88,.3-1.59,4.61-2.46,4.61-2.46,2.08-3.91,6.1,.58,6.1,.58,0,0,5.35-1.75,8.62-1.16,3.26,.59,7.58,4.06,7.58,4.06,0,0-.3,0-2.68,.87-1.93,.59-2.38,.59-3.57,1.45h0Zm-23.19,0h-6.39c-3.27-1.59-3.86-1.02-3.86-1.02,1.05-.14,2.23,.3,3.72,1.02h-4.46c-.3-.15-.45-.3-.74-.29-1.8-.43-3.72-.43-5.36,.29h-3.28c1.94-1.74,4.77-3.05,7.88-3.77,4.32-.87,8.03,.72,12.49,3.77h0Zm-21.86,0c2.08-2.03,5.36-3.77,9.37-4.35l1.49-.43v-1.16s-8.78,0-12.78,5.51c-.16,.14-.3,.29-.3,.43h2.23Zm-2.23,0h2.23c-1.77,1.74-2.67,3.77-2.37,5.66h-2.37c.3-1.89,1.04-3.78,2.52-5.66h0Zm3.71,0c-2.07,1.59-3.11,3.62-2.37,5.66h6.99v-.73s-5.06,.73-3.57-2.9c.29-1.01,1.18-1.58,2.23-2.02h-3.28Zm9.38,0h4.46c2.23,1.16,4.9,3.33,6.54,5.66l-4.76-.02c-1.04-1.29-2.38-2.45-3.41-3.47-.74-.73-1.49-1.74-2.83-2.17h0Zm4.61,0c1.78,.88,4.6,2.61,8.77,5.64l5.5,.02c-2.97-2.18-5.5-4.07-7.88-5.66h-6.39Zm16.04,0h13.54c-.3,.14-.59,.44-1.19,.72-2.23,1.74-6.54,.87-6.54,.87-2.97,5.51-6.7-.43-6.7-.43,.45-.43,.75-.87,.89-1.16h0Zm24.84,0h2.08c.3,0,.59,0,.74,.14,2.08,.73,2.82,3.49,3.12,5.51h-4.75c-.45-.59-1.04-1.02-2.23-1.45-2.53-.72-3.72,.14-4.17,1.45h-4.01c.02-.73,.02-1.45,.3-2.18,1.34-4.2,5.81-1.89,5.81-1.89,0,0,1.33-1.3,3.12-1.59h0Zm8.32,0h17.68c-.59,3.19,3.86,3.92,3.86,3.92l-1.94,1.29c-.59,.29-1.03,.29-1.48,.44l-1.63-.02c-3.41-.57-4.01-5.21-4.01-5.21-8.63,6.24-12.48-.43-12.48-.43h0Zm38.64,0h6.39c-1.78,1.3-2.97,2.32-3.56,4.93,0,.14-.15,.44-.15,.73h-9.82c1.05-.87,2.08-1.75,2.98-2.47,1.63-1.15,2.97-2.31,4.16-3.18h0Zm20.95,0h6.24c1.19,.88,2.53,2.02,4.01,3.19,.89,.72,1.92,1.6,2.97,2.47h-9.67c-.14-.29-.14-.59-.14-.73-.59-2.6-1.78-3.62-3.42-4.93h0Zm26.76,0h17.83s-3.86,6.67-12.47,.43c0,0-.6,4.64-4.03,5.22h-1.62c-.45-.15-.9-.15-1.49-.44l-1.94-1.31s4.47-.72,3.72-3.91h0Zm23.78,0h2.08c1.79,.29,3.12,1.59,3.12,1.59,0,0,4.47-2.31,5.79,1.89,.3,.72,.3,1.45,.16,2.16l-3.86,.02c-.45-1.31-1.64-2.18-4.17-1.45-1.03,.43-1.78,.87-2.23,1.44l-4.61,.02c.3-2.03,1.05-4.78,2.97-5.51,.3-.14,.6-.14,.74-.14h0Zm13.23,0h13.37c.3,.29,.59,.72,1.04,1.16,0,0-3.71,5.95-6.69,.43,0,0-4.3,.87-6.54-.87-.45-.28-.89-.58-1.18-.72h0Zm23.04,0h6.39c-1.93,.88-4.61,2.61-8.62,5.66l-5.5-.02c2.83-2.16,5.36-4.05,7.73-5.64h0Zm6.53,0c-2.38,1.16-4.9,3.33-6.53,5.66h4.76c1.03-1.31,2.22-2.47,3.26-3.49,.74-.72,1.64-1.73,2.83-2.17h-4.32Zm10.26,0h3.43c1.93,1.59,2.97,3.62,2.22,5.66l-6.84-.02v-.72s5.05,.72,3.57-2.89c-.29-1.02-1.19-1.59-2.38-2.03h0Zm4.75,0c1.79,1.74,2.69,3.77,2.39,5.66h2.37c-.3-1.89-1.04-3.78-2.38-5.66h-2.38Zm10.86,0h4.01c-.29,.72-.44,1.44-.44,2.17,.15,4.5,4.61,.58,4.61,.58,.15,1.17,.15,2.04,.14,2.91h-8.91c0-1.31,0-2.61,.16-4.07,0-.58,.14-1.15,.45-1.59h0Zm12.78,0h3.72c.16,.29,.3,.72,.59,1.01,.75,.73,2.53,.29,3.26-1.01h5.66c-.15,1.3-3.13,4.2-5.21,5.66l-4.15-.02c-1.19-.72-2.23-1.58-2.23-1.58,0,0-.16,.58-.3,1.6h-3.41c-.3-2.32,.14-3.48,2.08-5.66h0Zm22.74,5.66c-1.93-1.89-4.61-3.48-7.58-3.2-3.12,.29-5.06,1.6-6.25,3.18l13.83,.02Zm-283.75,0h2.37c.15,1.16,.75,2.16,1.79,3.04,4.9,4.34,11-.3,11-.3,0,0,.3,0-.16,3.04-.45,3.04-6.09,5.66-10.99,2.17-3.12-2.17-4.31-4.93-4.01-7.96h0Zm3.86,0c.14,.43,.45,.87,.74,1.29,3.26,4.22,6.24,.15,6.24,.15v-1.45s-6.98,0-6.98,0h0Zm17.98-.02l4.76,.02c1.33,1.74,1.94,3.62,1.78,5.21-.14,1.31-.45,3.64-1.78,4.64-5.95,4.35-8.92-1.88-8.92-1.88,0,0,4.46,2.32,5.96-1.74,.73-2.47-.3-4.49-1.8-6.24h0Zm7.14,0l5.5,.02c.89,.72,1.77,1.29,2.68,2.02,9.8,7.25,17.98,6.81,20.81,5.21,2.37-1.29,5.93-4.92,4.3-7.23h4.75c.16,1.16,.16,2.02,.16,2.02,13.97-2.47,16.5,5.8,16.5,5.8-9.51-4.07-15.46-.88-19.47,2.02-4.16,2.89-16.65,4.93-31.22-6.81-1.48-1.16-2.82-2.18-4.01-3.06h0Zm22.89,.02c.6,2.6,3.72,3.76,3.72,3.76,0,0-.44-2.18,.3-3.76h-4.01Zm34.04-.02l1.63,.02c-.59,.14-1.04,.14-1.63-.02h0Zm15,.02c-1.47,1.16-2.97,2.16-4,2.6-6.24,3.04-10.7,.43-10.7,.43,0,0,2.81,3.77,7.13,4.93,4.3,1.31,11.44-3.18,11.44-3.18,2.68,5.51,7.28,6.52,10.25,5.22,2.83-1.16,3.87-4.48,3.87-4.48,0,0-2.23,1.29-5.5,1.74-3.12,.29-3.27-3.78-2.68-7.25h-9.82Zm31.66,0h9.67c1.48,1.16,2.97,2.18,4.01,2.6,6.24,3.04,10.55,.44,10.55,.44,0,0-2.82,3.76-6.99,4.93-4.31,1.3-11.3-3.19-11.3-3.19-2.67,5.51-7.28,6.52-10.1,5.22-2.83-1.15-3.86-4.48-3.86-4.48,0,0,2.22,1.29,5.5,1.72,2.97,.3,3.12-3.76,2.51-7.23h0Zm22.9,0c.59,.14,1.05,.14,1.62,0h-1.62Zm20.36,0l4.61-.02c-1.64,2.33,1.94,5.95,4.31,7.26,2.83,1.6,10.85,2.02,20.52-5.22,1.03-.72,1.94-1.31,2.83-2.04l5.5,.02c-1.19,.87-2.53,1.88-4.01,3.04-14.57,11.74-26.9,9.7-30.91,6.81-4.01-2.9-9.96-6.09-19.32-2.03,0,0,2.52-8.26,16.35-5.79,0,0,0-.87,.14-2.02h0Zm11.01,0c.73,1.58,.3,3.76,.3,3.76,0,0,3.11-1.16,3.56-3.78l-3.86,.02h0Zm28.98,0h4.76c-1.5,1.74-2.54,3.77-1.79,6.23,1.48,4.06,5.94,1.74,5.94,1.74,0,0-3.12,6.22-8.91,1.88-1.34-1.02-1.64-3.33-1.79-4.64-.15-1.58,.59-3.47,1.79-5.21h0Zm15.61-.02l6.84,.02c-.15,.43-.3,.87-.6,1.31-3.26,4.2-6.24,.14-6.24,.14v-1.46h0Zm8.33,.02c-.16,1.16-.75,2.16-1.79,3.04-4.75,4.35-10.84-.29-10.84-.29,0,0-.16,0,.14,3.04,.45,3.04,6.09,5.65,11,2.18,2.97-2.18,4.32-4.93,3.86-7.97h-2.37Zm7.87,0h8.91c-.44,4.49-3.72,5.21-3.72,5.21-4.3,7.98-11.29,4.07-11.29,4.07,0,0,.73-.58,3.72-2.76,2.22-1.31,2.37-3.62,2.37-6.52h0Zm11.3,0c0,.58,.14,1.31,.3,2.02,.89,4.21,1.05,5.8-.45,7.67-1.33,1.75-4,6.68-4,6.68l5.5-4.06s1.79-1.31,4.46-.87c2.53,.43,12.35,3.19,12.48-5.09,0,0-5.2-.14-4.61-2.6,.6-2.47,6.84-3.18,10.26-.29l3.42,2.89s-1.03,5.53-6.23,8.99c-5.2,3.48-8.32,2.76-7.73,1.31,.59-1.45,.87-3.77-3.58-1.88-4.46,1.88-7.29,4.49-7.28,8.11,0,.59,0,1.16,0,1.45h3.58c2.23-1.74,5.95-3.04,8.17-2.76,2.38,.14,6.85-.43,10.7-6.38,3.87-5.94,3.86-7.83,3.86-7.83l-.59-3.47s-1.33-2.03-3.41-3.91l-13.83-.02c-1.03,1.6-1.19,3.35-.59,4.8,1.19,2.76,4.01,3.91,4.01,3.91,0,0-2.83-.3-4.01-.44-1.19-.29-4.01-.87-6.09,.15,0,0-1.05-3.04-1.05-5.66,0-1.16,.15-2.03,.15-2.75h-3.41Zm5.95-.02l4.15,.02c-.74,.58-1.48,.87-1.93,.87-.59,0-1.49-.43-2.22-.88h0Zm12.03,24.36h-10.25c2.83-2.17,6.39-2.17,10.25,0Zm-15.47,0h3.58c-.3,.14-.45,.29-.59,.43-1.78,1.74-2.69,1.9-2.98-.43h0Zm5.21,0c-.75,.72-1.5,1.46-2.08,2.33-1.33,1.88-1.79,3.91-1.63,5.79h4.75c-.14-1.74,.16-3.76,1.8-5.5,3.42-4.07,9.06-1.16,11.74,5.5h1.78c-.75-2.46-2.08-5.21-4.47-6.96-.59-.43-1.03-.72-1.63-1.16h-10.25Zm13.52,8.12h-2.08c-.3-1.16-1.04-2.02-1.94-2.46-2.53-1.01-2.97,1.01-2.97,2.46h-3.27c-.73-1.29-1.19-3.19,1.34-5.07,3.26-2.61,6.84,.28,8.91,5.07Zm-17.24,0h4.75c.3,3.05,2.09,5.51,2.09,5.51,0,0,0,.28-2.98-.14-1.93-.29-3.56-2.61-3.86-5.37h0Zm6.98,0h3.27c0,.73,0,1.16,0,1.16h-2.08s-.73-.43-1.19-1.16h0Zm8.18,0c.59,1.45,.74,3.49,.3,5.22-.45,1.74-1.64,2.6-2.53,3.63-2.37,2.45-5.5,6.51-9.51,5.06-4.01-1.45-1.79-5.94-1.79-5.94,0,0-6.1,3.04-1.79,8.98,.9,1.45,3.28,1.6,4.47,1.89,5.34,.73,12.18-8.41,11.9-12.03,0,0,1.78,1.74-9.66,16.52-2.69,3.33-4.61,6.67-5.95,9.71h3.71c.9-1.74,1.94-3.49,3.13-5.36,7.14-9.87,12.93-15.95,11.44-23.2-.45-1.59-.89-3.18-1.64-4.49h-2.08Zm3.12,0h1.78c.89,3.18,.89,5.94,.89,5.94h-1.19s-.3-1.45-.3-1.45c-.3-1.59-.75-3.18-1.19-4.49h0Zm2.67,33.06h-7.43v-.43c-5.36-3.05,.44-6.81,.44-6.81,2.08,1.89,2.84,1.45,4.47-.14,1.64-1.6-1.78-5.23-1.78-5.23,0,0,.14-1.29,1.78-1,1.64,.44,2.38,4.78,2.38,4.78,3.86,2.03-.59,6.09-.59,6.09,0,0,.45,1.16,.74,2.76Zm-20.36,0h3.71c-3.71,7.39-3.12,13.19-1.93,15.51,1.64,2.89,6.7,7.83,8.62,2.03,1.8-5.65-5.04-4.48-5.04-4.48,0,0,1.78-4.93,5.79-3.48,4.01,1.44,1.78,5.94,1.78,5.94,0,0,2.69,2.76,1.49,5.95-1.19,3.33-7.58,3.33-7.58,3.33,.73,4.06,.59,7.1,0,9.43h-3.72c.45-5.66-1.78-9.58-3.87-12.47-2.23-3.19-3.86-11.45,.75-21.74h0Zm12.93,0c-.15,1.01-.45,4.2,.89,6.09,1.64,2.31,1.33,2.31,2.23,4.78,.75,2.46,.75,2.6,.75,2.6,0,0,3.42-4.35,4.01-7.54,.3-1.75,0-4.2-.45-5.94h-7.43Zm5.35,34.21c0-.16-.13-.16-.3-.3-2.97-2.47-3.41-6.96-3.41-6.96,0,0-3.87,2.31-2.97,7.25h6.67Zm-15.15,0h3.72c-1.48,5.79-5.65,7.25-5.65,7.25,1.19-2.76,1.78-5.09,1.94-7.25h0Zm8.48,0h6.67c3.27,3.18,5.05,3.33,5.05,3.33,0,0,.9,4.92,.9,7.23,0,2.47-.15,4.78-.15,4.78l-1.33,1.9h-4.62c.45-2.89-.74-6.09-3.56-6.67-3.26-.59-3.87,3.92-3.87,3.92l-1.33-2.04c-2.23-6.23,4.75-7.1,4.75-7.1-1.48-2.02-2.22-3.91-2.51-5.35h0Zm-6.4,17.24h-4.31c.14-.14,.14-.28,.14-.43,1.2-4.35,4.92-7.25,4.92-7.25,0,0-1.79,3.04-.75,7.68Zm-4.31,0h4.31c.3,1.02,.59,2.02,1.19,3.19,.75,1.74,3.12,4.78,4.92,7.1,9.06,11.45,11.14,13.63,11.14,13.63,2.22,.87,2.68,1.6,2.82,2.03l-.44,3.78-2.38,2.6s-2.08,2.18-11.14,13.49c-1.8,2.16-4.17,5.22-4.92,6.96-.59,1.16-.89,2.17-1.19,3.04h-4.31c-.74-4.2,3.42-10.86,3.42-10.86-5.5-2.62-6.54-7.26-5.35-10.15,1.33-2.76,4.46-3.77,4.46-3.77,0,0-1.19,2.16-1.64,5.36-.3,3.33,4.31,3.33,7.88,2.47,3.72-.73,4.32-3.05,6.99-5.8,1.94-2.31,1.94-7.54,0-9.86-2.67-2.9-3.27-5.08-6.99-5.95-3.56-.87-8.17-.87-7.88,2.47,.45,3.33,1.64,5.51,1.64,5.51,0,0-3.12-1.02-4.46-3.77-1.19-2.9-.16-7.68,5.35-10.28,0,0-4.16-6.82-3.42-11.17h0Zm17.24,0c-.15,.43-.14,.72-.3,1.16-1.03,3.18-2.38,4.78-2.38,4.78l1.8,1.74,5.5-7.68h-4.62Zm4.61,55.8l-5.5-7.54-1.78,1.6s1.34,1.59,2.37,4.93c.16,.3,.16,.73,.31,1.01h4.59Zm-21.84,0h4.31c-1.05,4.64,.74,7.68,.74,7.68,0,0-3.71-2.89-4.91-7.1,0-.15-.14-.44-.14-.59h0Zm17.25,0h4.59l1.34,2.02s.15,2.19,.15,4.64-.9,7.25-.9,7.25c0,0-1.78,.29-5.04,3.33h-6.7c.3-1.45,1.05-3.33,2.53-5.36,0,0-6.98-.72-4.75-7.1l1.33-2.04s.6,4.51,3.86,3.93c2.83-.59,4.01-3.63,3.57-6.68h0Zm-11.3,17.24h-3.72c-.16-2.02-.75-4.48-1.94-7.1,0,0,4.17,1.29,5.65,7.1Zm-3.72,0h3.72c.59,2.33,.73,5.37,0,9.28,0,0,6.39,0,7.58,3.34,1.18,3.18-1.49,5.8-1.49,5.8,0,0,2.23,4.49-1.78,5.94-4.01,1.45-5.8-3.48-5.8-3.48,0,0,6.85,1.15,5.05-4.5-1.93-5.65-6.98-.72-8.61,2.04-1.19,2.31-1.79,8.12,1.93,15.51h-3.72c-4.61-10.3-2.97-18.42-.75-21.6,2.08-2.9,4.31-6.82,3.87-12.33h0Zm8.46,0c-.88,5.09,2.98,7.26,2.98,7.26,0,0,.44-4.51,3.42-6.97,.14,0,.29-.14,.3-.29h-6.7Zm8.77,33.93c.45-1.74,.75-4.21,.45-5.95-.6-3.18-4.01-7.53-4.01-7.53,0,0,0,.29-.75,2.6-.89,2.47-.59,2.47-2.22,4.78-1.34,1.74-1.05,4.93-.9,6.1h7.43Zm-20.36,0h3.72c.88,1.58,1.93,3.48,3.12,5.22,7.14,9.71,12.93,15.79,11.44,22.9-.45,1.6-.89,3.19-1.64,4.49h-2.08c.59-1.43,.74-3.48,.3-5.06-.45-1.74-1.64-2.76-2.53-3.63-2.37-2.47-5.5-6.52-9.51-5.07-4.01,1.45-1.8,5.94-1.8,5.94,0,0-6.09-3.04-1.77-8.98,.89-1.31,3.27-1.6,4.46-1.74,5.36-.73,12.18,8.25,11.88,11.88,0,0,1.8-1.9-9.65-16.53-2.69-3.18-4.61-6.38-5.95-9.42h0Zm12.93,0v.28c-5.36,3.05,.45,6.82,.45,6.82,2.08-1.89,2.83-1.46,4.46,.14,1.64,1.6-1.78,5.08-1.78,5.08,0,0,.14,1.45,1.78,1.01,1.64-.44,2.38-4.63,2.38-4.63,3.86-2.04-.59-6.1-.59-6.1,0,0,.45-1.15,.74-2.6h-7.43Zm6.54,32.61c.89-3.04,.89-5.8,.89-5.8h-1.19l-.3,1.31c-.3,1.75-.73,3.19-1.19,4.49h1.78Zm-9.81,0v-1.16h-2.08s-.73,.43-1.19,1.16h3.27Zm-5.5,0c.31-3.04,2.09-5.5,2.09-5.5,0,0,0-.14-2.98,.29-1.92,.3-3.56,2.46-3.86,5.21h4.75Zm-4.75,0h4.75c-.14,1.74,.16,3.78,1.8,5.51,3.42,4.06,9.06,1.16,11.74-5.51h1.78c-.75,2.47-2.08,5.22-4.47,6.96-5.5,4.05-10.55,3.62-13.97-1.31-1.33-1.87-1.78-3.76-1.64-5.65h0Zm6.99,0c-.73,1.31-1.19,3.2,1.34,5.08,3.28,2.61,6.84-.3,8.91-5.08h-2.08c-.3,1.16-1.03,2.03-1.94,2.47-2.53,1.02-2.97-1-2.97-2.47h-3.27Zm13.08,20.87c-.75-2.46-2.08-5.22-4.47-6.94-5.5-4.07-10.55-3.63-13.97,1.3-1.33,1.88-1.78,3.91-1.63,5.64h4.75c-.14-1.73,.16-3.75,1.8-5.49,3.42-4.07,9.06-1.17,11.74,5.5h1.78Zm-2.83,0h-2.08c-.3-1.15-1.05-2.03-1.94-2.46-2.53-.87-2.97,1.01-2.97,2.46h-3.26c-.75-1.15-1.2-3.03,1.33-5.06,3.28-2.6,6.84,.29,8.91,5.06Zm-17.24,0h4.75c.3,3.07,2.09,5.52,2.09,5.52,0,0,0,.29-2.98-.14-1.92-.3-3.56-2.46-3.86-5.37h0Zm7,0h3.26v1.31h-2.08s-.73-.59-1.17-1.31h0Zm8.17,0c.59,1.6,.74,3.48,.3,5.22-.45,1.74-1.64,2.76-2.53,3.62-2.37,2.47-5.5,6.53-9.51,5.09-4.01-1.45-1.8-5.94-1.8-5.94,0,0-6.08,3.18-1.78,9.13,.9,1.31,3.28,1.59,4.47,1.74,5.34,.73,12.18-8.4,11.9-12.03,0,0,1.78,1.87-9.66,16.52-2.69,3.33-4.61,6.67-5.95,9.7h3.72c.89-1.72,1.94-3.46,3.12-5.35,7.14-9.86,12.93-15.94,11.44-23.19-.45-1.59-.89-3.04-1.64-4.51h-2.08Zm3.12,0h1.78c.89,3.19,.89,5.94,.89,5.94h-1.19l-.3-1.45c-.3-1.6-.75-3.2-1.19-4.49h0Zm2.67,33.04h-7.43v-.43c-5.36-3.05,.44-6.81,.44-6.81,2.08,1.88,2.84,1.45,4.47-.15,1.64-1.58-1.78-5.06-1.78-5.06,0,0,.14-1.46,1.78-1.03,1.64,.29,2.38,4.64,2.38,4.64,3.86,2.03-.59,6.23-.59,6.23,0,0,.45,1.01,.74,2.6Zm-20.36,0h3.72c-3.72,7.41-3.12,13.2-1.94,15.53,1.64,2.89,6.69,7.81,8.62,2.16,1.8-5.8-5.04-4.63-5.04-4.63,0,0,1.78-4.94,5.79-3.49,4.01,1.45,1.78,5.95,1.78,5.95,0,0,2.67,2.75,1.49,5.94-1.19,3.33-7.58,3.32-7.58,3.32,.73,4.07,.59,7.12,0,9.44h-3.72c.45-5.66-1.79-9.58-3.86-12.47-2.24-3.2-3.86-11.46,.74-21.76h0Zm12.93,0c-.16,1.02-.45,4.36,.89,6.1,1.63,2.32,1.34,2.32,2.23,4.77,.75,2.48,.75,2.62,.75,2.62,0,0,3.42-4.2,4-7.54,.3-1.75,0-4.2-.44-5.95h-7.43Zm5.35,34.23c0-.15-.13-.15-.3-.3-2.97-2.46-3.41-6.94-3.41-6.94,0,0-3.86,2.31-2.98,7.23l6.69,.02Zm-15.15,0h3.72c-1.48,5.79-5.65,7.25-5.65,7.25,1.19-2.76,1.78-5.09,1.94-7.25h0Zm8.46-.02l6.69,.02c3.27,3.18,5.05,3.32,5.05,3.32,0,0,.9,4.93,.9,7.26,0,2.45-.15,4.77-.15,4.77l-1.48,1.9-4.47-.02c.45-2.89-.74-6.09-3.56-6.67-3.26-.58-3.87,3.92-3.87,3.92l-1.33-2.03c-2.23-6.23,4.75-7.1,4.75-7.1-1.48-2.03-2.22-3.91-2.53-5.37h0Zm-6.39,17.27h-4.01c0-.3,0-.59,.15-.88,1.19-4.35,4.61-6.68,4.61-6.68,0,0-1.79,3.04-.75,7.55Zm-4.01,0h4.01c.3,1,.59,2.16,1.19,3.33,.75,1.74,3.12,2.89,4.92,5.22,9.06,11.59,11.58,12.32,11.58,12.32,2.22,1.02,2.23,4.79,2.39,5.07l-.46,11.31-2.37,2.75s-2.08,2.03-11.14,13.48c-1.8,2.18-4.17,5.22-4.92,6.97-.59,1-.89,2.03-1.19,3.04h-4.31c-.75-4.21,3.42-10.88,3.42-10.88-5.5-2.61-4.76-4.49-3.57-7.38,1.18-2.76,4.46-3.78,4.46-3.78-2.52,6.83,1.34,7.83,4.61,6.09,3.12-1.59,5.36-5.36,6.85-6.95,1.93-2.17,1.93-16.81,0-19.14-2.68-2.76-3.28-5.07-6.99-5.94-3.57-.73-5.2-1.3-5.8,2.31,.45,3.19,.6,4.78,.6,4.78,0,0-2.68-1.29-3.86-4.2-1.34-2.89-.74-6.66,4.76-9.27,0,0-4.61-4.93-4.17-9.12h0Zm16.94-.02c-.15,.44-.14,.73-.3,1.16-1.03,3.19-2.37,4.79-2.37,4.79l1.78,1.59,5.36-7.53-4.47-.02h0Zm4.62,63.49l-5.5-7.54-1.79,1.6s1.34,1.59,2.37,4.78c.15,.43,.16,.72,.3,1.16h4.62Zm-21.86,0h4.31c-1.05,4.64,.74,7.69,.74,7.69,0,0-3.71-2.91-4.91-7.11,0-.29-.14-.43-.14-.58h0Zm17.24,0h4.62l1.33,1.88s.15,2.33,.15,4.79c0,2.31-.88,7.26-.88,7.26,0,0-1.8,.14-5.07,3.33h-6.69c.3-1.46,1.05-3.33,2.53-5.38,0,0-6.98-.88-4.75-7.09l1.33-2.04s.6,4.49,3.86,3.92c2.83-.59,4.01-3.63,3.56-6.68h0Zm-11.29,17.26h-3.72c-.15-2.19-.75-4.5-1.94-7.26,0,0,4.17,1.45,5.65,7.26Zm-3.72,0h3.72c.59,2.31,.73,5.36,0,9.28,0,0,6.39,0,7.58,3.19,1.18,3.33-1.49,5.94-1.49,5.94,0,0,2.23,4.5-1.78,5.94-4.01,1.3-5.79-3.48-5.79-3.48,0,0,6.84,1.16,5.04-4.49-1.93-5.66-6.98-.87-8.62,2.03-1.19,2.32-1.78,8.12,1.94,15.51h-3.72c-4.61-10.3-2.97-18.41-.75-21.6,2.08-2.9,4.32-6.81,3.87-12.33h0Zm8.46,0c-.88,4.93,2.98,7.23,2.98,7.23,0,0,.44-4.48,3.42-6.94,.14,0,.29-.14,.29-.28h-6.69Zm8.77,33.92c.45-1.89,.75-4.22,.45-5.95-.59-3.34-4.01-7.53-4.01-7.53,0,0,0,.14-.75,2.6-.89,2.45-.59,2.47-2.23,4.63-1.33,1.89-1.04,5.09-.89,6.24h7.43Zm-20.36,0h3.72c.89,1.6,1.94,3.33,3.12,5.21,7.14,9.71,12.93,15.8,11.44,22.9-.44,1.6-.88,3.2-1.63,4.49h-2.08c.59-1.45,.74-3.46,.3-5.05-.45-1.74-1.64-2.76-2.53-3.63-2.38-2.46-5.5-6.53-9.51-5.07-4.02,1.44-1.79,5.79-1.79,5.79,0,0-6.09-3.04-1.79-8.85,.9-1.29,3.28-1.59,4.47-1.74,5.34-.72,12.18,8.27,11.9,11.88,0,0,1.78-1.87-9.66-16.52-2.69-3.33-4.61-6.52-5.95-9.42h0Zm12.93,0v.28c-5.36,3.05,.44,6.67,.44,6.67,2.08-1.74,2.84-1.3,4.47,.29,1.64,1.59-1.78,5.07-1.78,5.07,0,0,.14,1.45,1.78,1.02,1.64-.43,2.39-4.64,2.39-4.64,3.86-2.02-.6-6.08-.6-6.08,0,0,.45-1.16,.74-2.6h-7.43Zm6.54,32.6c.89-3.03,.89-5.92,.89-5.92h-1.19l-.3,1.43c-.3,1.6-.73,3.2-1.19,4.49h1.78Zm-9.81,0v-1.15h-2.08s-.73,.43-1.19,1.15h3.27Zm-5.5,0c.3-3.03,2.08-5.5,2.08-5.5,0,0,0-.14-2.98,.29-1.93,.14-3.56,2.47-3.86,5.21h4.76Zm-4.76,0h4.76c-.15,1.75,.15,3.78,1.79,5.53,3.42,4.05,9.06,1,11.74-5.53h1.78c-.74,2.47-2.08,5.09-4.47,6.97-5.5,4.05-10.55,3.62-13.97-1.31-1.33-1.88-1.79-3.91-1.64-5.66h0Zm6.99,0c-.73,1.17-1.19,3.05,1.34,5.09,3.28,2.47,6.84-.29,8.91-5.09h-2.08c-.3,1.17-1.05,2.04-1.94,2.48-2.53,.87-2.97-1.02-2.97-2.48h-3.27Zm13.08,21.03c-.75-2.32-2.08-5.07-4.47-6.81-5.5-4.07-10.55-3.62-13.97,1.16-1.33,1.89-1.79,3.91-1.63,5.65h4.75c-.14-1.74,.16-3.62,1.8-5.36,3.42-4.07,9.06-1.16,11.74,5.36h1.78Zm-2.82,0h-2.1c-.29-1.02-1.01-2.03-1.92-2.32-2.53-1.01-2.97,1.02-2.97,2.32h-3.26c-.75-1.16-1.2-3.04,1.33-4.93,3.26-2.6,6.84,.3,8.92,4.93Zm-17.24,0h4.75c.31,3.04,2.08,5.66,2.08,5.66,0,0,0,.14-2.97-.3-1.92-.3-3.56-2.47-3.86-5.37h0Zm6.99,0h3.26c0,.72,0,1.31,0,1.31h-2.08s-.73-.43-1.17-1.31h0Zm8.15,0c.61,1.6,.76,3.62,.31,5.21-.45,1.77-1.64,2.76-2.53,3.64-2.37,2.47-5.5,6.52-9.51,5.07-4.01-1.45-1.8-5.94-1.8-5.94,0,0-6.09,3.04-1.77,8.99,.89,1.31,3.27,1.6,4.45,1.74,5.36,.72,12.19-8.26,11.9-11.88,0,0,1.78,1.74-9.66,16.38-2.69,3.33-4.61,6.52-5.95,9.55h3.72c.89-1.74,1.94-3.47,3.12-5.21,7.14-9.86,12.93-15.95,11.44-23.05-.45-1.59-.89-3.05-1.63-4.49h-2.1Zm3.14,0h1.78c.89,3.19,.89,5.95,.89,5.95h-1.19l-.3-1.45c-.3-1.61-.75-3.06-1.19-4.51h0Zm2.67,32.75h-7.43v-.43c-5.36-3.04,.44-6.67,.44-6.67,2.09,1.89,2.83,1.45,4.47-.15,1.64-1.59-1.78-5.07-1.78-5.07,0,0,.14-1.45,1.78-1.01,1.64,.43,2.39,4.64,2.39,4.64,3.86,2.03-.6,6.08-.6,6.08,0,0,.45,1.16,.74,2.6Zm-20.36,0h3.72c-3.72,7.4-3.12,13.19-1.94,15.52,1.64,2.75,6.69,7.68,8.62,2.03,1.79-5.66-5.04-4.49-5.04-4.49,0,0,1.78-4.94,5.79-3.49,4.01,1.45,1.78,5.95,1.78,5.95,0,0,2.69,2.6,1.49,5.79-1.19,3.33-7.58,3.33-7.58,3.33,.73,3.91,.59,6.96,0,9.28h-3.72c.44-5.51-1.79-9.43-3.87-12.33-2.22-3.18-3.86-11.3,.75-21.6h0Zm12.93,0c-.15,1.17-.45,4.35,.9,6.1,1.63,2.32,1.33,2.32,2.22,4.64,.75,2.47,.75,2.76,.75,2.76,0,0,3.41-4.35,4-7.54,.3-1.74,0-4.2-.44-5.95h-7.43Zm5.35,33.93c0-.14-.15-.29-.29-.43-2.98-2.33-3.42-6.82-3.42-6.82,0,0-3.86,2.18-2.98,7.26h6.69Zm-15.15,0h3.72c-1.49,5.79-5.65,7.1-5.65,7.1,1.19-2.62,1.79-5.07,1.94-7.1h0Zm8.46,0h6.69c3.27,3.04,5.07,3.33,5.07,3.33,0,0,.88,4.78,.88,7.25s-.15,4.63-.15,4.63l-1.34,2.03h-4.59c.44-3.04-.75-6.08-3.57-6.67-3.26-.58-3.87,3.91-3.87,3.91l-1.33-2.02c-2.23-6.39,4.76-7.11,4.76-7.11-1.5-2.17-2.24-3.91-2.55-5.36h0Zm-6.39,17.24h-4.31c0-.29,.14-.43,.14-.58,1.2-4.2,4.92-7.11,4.92-7.11,0,0-1.8,3.06-.75,7.69Zm-4.31,0h4.31c.3,.87,.59,1.89,1.19,3.04,.75,1.74,3.12,4.64,4.92,6.96,9.06,11.31,11.13,13.33,11.13,13.33l2.39,2.76,.45,3.76c-.16,.44-.61,1.02-2.83,2.03,0,0-2.08,2.03-11.14,13.63-1.8,2.31-4.17,5.21-4.92,7.1-.59,1-.89,2.18-1.19,3.18h-4.31c-.74-4.34,3.42-11.15,3.42-11.15-5.5-2.61-6.54-7.4-5.36-10.3,1.34-2.89,4.46-3.9,4.46-3.9,0,0-1.19,2.31-1.64,5.64-.3,3.19,4.31,3.19,7.88,2.47,3.72-.87,4.32-3.19,6.99-5.95,1.94-2.31,1.94-7.54,0-9.85-2.67-2.76-3.27-5.07-6.99-5.81-3.57-.86-8.17-.86-7.88,2.33,.45,3.33,1.64,5.5,1.64,5.5,0,0-3.12-1.01-4.46-3.78-1.19-2.89-.16-7.54,5.35-10.14,0,0-4.16-6.67-3.42-10.87h0Zm17.25,0c-.16,.3-.16,.73-.31,1.02-1.03,3.33-2.37,4.92-2.37,4.92l1.79,1.61,5.49-7.55h-4.59Zm4.61,55.8l-5.5-7.67-1.79,1.6s1.34,1.74,2.37,4.92c.16,.43,.15,.73,.3,1.16h4.62Zm-21.86,0h4.31c-1.04,4.64,.75,7.55,.75,7.55,0,0-3.72-2.76-4.91-7.11,0-.15,0-.3-.15-.44h0Zm17.24,0h4.62l1.33,1.9s.15,2.31,.15,4.64c0,2.46-.9,7.38-.9,7.38,0,0-1.78,.15-5.04,3.34h-6.7c.3-1.59,1.05-3.34,2.53-5.37,0,0-6.98-.87-4.75-7.1l1.33-2.03s.6,4.49,3.86,3.76c2.83-.43,4.01-3.63,3.56-6.52h0Zm-11.29,17.25h-3.72c-.15-2.16-.75-4.49-1.94-7.24,0,0,4.17,1.44,5.65,7.24Zm-3.72,0h3.72c.59,2.31,.73,5.36,0,9.42,0,0,6.39,0,7.58,3.2,1.18,3.33-1.49,6.07-1.49,6.07,0,0,2.23,4.51-1.78,5.95-4.01,1.3-5.79-3.62-5.79-3.62,0,0,6.83,1.3,5.04-4.51-1.92-5.65-6.98-.72-8.62,2.18-1.19,2.31-1.78,8.12,1.94,15.52h-3.72c-4.61-10.29-2.98-18.57-.75-21.75,2.09-2.9,4.31-6.96,3.87-12.46h0Zm8.46,0c-.88,4.93,2.98,7.24,2.98,7.24,0,0,.44-4.49,3.42-6.95,.16-.14,.3-.14,.3-.29h-6.7Zm8.77,34.21c.45-1.74,.75-4.21,.44-5.95-.59-3.33-4-7.53-4-7.53,0,0,0,.14-.75,2.6-.89,2.47-.59,2.47-2.23,4.78-1.33,1.74-1.04,5.08-.89,6.1h7.43Zm-20.36,0h3.72c.89,1.74,1.94,3.46,3.12,5.36,7.14,9.86,12.93,15.95,11.44,23.19-.45,1.59-.89,3.19-1.63,4.49h-2.08c.59-1.59,.74-3.48,.3-5.21-.45-1.75-1.64-2.76-2.53-3.62-2.37-2.47-5.5-6.52-9.51-5.07-4.01,1.44-1.8,5.94-1.8,5.94,0,0-6.09-3.05-1.77-9.14,.89-1.3,3.27-1.6,4.46-1.74,5.34-.73,12.18,8.41,11.88,12.04,0,0,1.8-1.89-9.65-16.53-2.69-3.33-4.61-6.67-5.95-9.71h0Zm12.93,0v.43c-5.36,3.04,.44,6.81,.44,6.81,2.09-1.88,2.83-1.45,4.47,.15,1.64,1.58-1.78,5.06-1.78,5.06,0,0,.14,1.46,1.78,1.01,1.64-.28,2.39-4.63,2.39-4.63,3.86-2.03-.6-6.23-.6-6.23,0,0,.45-1.02,.74-2.6h-7.43Zm6.54,33.04c.89-3.18,.89-5.95,.89-5.95h-1.19l-.3,1.45c-.3,1.6-.75,3.2-1.19,4.5h1.78Zm-9.81,0c0-.72,0-1.3,0-1.3h-2.08s-.73,.58-1.17,1.3h3.26Zm-5.51,0c.31-3.04,2.09-5.51,2.09-5.51,0,0,0-.29-2.98,.15-1.92,.29-3.56,2.46-3.86,5.36h4.75Zm-4.75,0h4.75c-.14,1.74,.16,3.77,1.8,5.5,3.42,4.06,9.06,1.17,11.74-5.5h1.78c-.75,2.47-2.08,5.22-4.47,6.96-.59,.43-1.03,.72-1.64,1.01h-10.24c-.75-.58-1.48-1.29-2.09-2.17-1.33-2.03-1.77-3.92-1.62-5.8h0Zm6.99,0c-.75,1.17-1.2,3.2,1.33,5.08,3.26,2.6,6.84-.3,8.92-5.08h-2.08c-.3,1.17-1.03,2.03-1.94,2.47-2.53,1.01-2.97-1.02-2.97-2.47h-3.26Zm-4.92,7.97c-.3,0-.45-.14-.59-.29-1.8-1.74-2.68-1.87-2.97,.29h3.57Zm-33.6,25.22s5.07-.72,3.58,2.91c-.3,1-1.19,1.59-2.37,2.03h3.42c2.37-2.04,3.41-4.51,1.63-6.97-3.27-4.34-6.25-.14-6.25-.14v2.17h0Zm-4.74,4.93c-1.2-.43-2.09-1.45-2.83-2.17-2.37-2.47-6.39-5.51-5.05-9.71,1.48-4.06,5.94-1.74,5.94-1.74,0,0-3.12-6.23-8.91-1.88-1.34,1.01-1.64,3.33-1.79,4.63-.44,3.91,4.32,8.85,8.32,10.88h4.33Zm-4.47,0h-6.39c-3.12-2.03-6.54-4.78-10.56-7.68-9.66-7.25-17.69-6.82-20.52-5.22-2.82,1.59-7.72,6.82-2.08,8.69,5.64,1.74,4.47-5.21,4.47-5.21,0,0,4.9,1.87,3.4,5.94-1.33,4.06-5.79,1.88-5.79,1.88,0,0-1.34,1.31-3.13,1.6h-2.08c-.14,0-.44-.15-.74-.15-3.12-1.3-3.12-7.53-3.12-7.53-13.83,2.31-16.51-5.8-16.51-5.8,9.52,4.07,15.47,.87,19.48-2.03,4.01-2.9,16.35-4.93,30.91,6.66,6.25,5.08,10.26,7.69,12.63,8.85h0Zm39.24-30.16h3.57c2.23,1.89,5.95,3.2,8.17,2.91,2.38-.15,6.85,.42,10.7,6.37,3.86,5.94,3.86,7.82,3.86,7.82l-.58,3.48s-4.92,7.69-11.01,7.12c-6.1-.58-8.03-5.09-6.84-7.98,1.19-2.9,4.01-3.91,4.01-3.91,0,0-2.83,.29-4.01,.43-1.19,.3-4,.87-6.09-.14,0,0-1.05,3.04-1.05,5.65,0,2.76,.45,4.35,.45,4.35,0,0,2.81-2.47,4.46-2.47,1.63,.01,6.83,4.64,7.13,6.53h-5.65c-.73-1.3-2.51-1.74-3.26-1.02-.3,.3-.45,.59-.6,1.02h-3.72c-2.37-2.76-2.52-3.92-1.78-7.68,.89-4.2,1.04-5.8-.45-7.68-1.33-1.74-4.01-6.66-4.01-6.66l5.51,4.05s1.78,1.16,4.45,.88c2.53-.44,12.35-3.2,12.48,5.07,0,0-5.2,.14-4.61,2.61,.6,2.45,6.85,3.04,10.27,.28l3.41-2.89s-1.03-5.52-6.23-8.99-8.32-2.76-7.73-1.3c.59,1.45,.88,3.75-3.58,1.88-4.46-1.88-7.28-4.48-7.28-8.25v-1.46h0Zm5.21,0c2.83,2.31,6.39,2.31,10.24,0h-10.24Zm-14.42,30.16c-.3-.72-.44-1.45-.44-2.17,.15-4.5,4.61-.73,4.61-.73,1.05-7.11-3.57-7.98-3.57-7.98-4.3-7.97-11.29-4.05-11.29-4.05,0,0,.74,.58,3.72,2.61,3.12,2.17,2.08,5.79,2.53,10.72,0,.58,.14,1.02,.45,1.6h4.01Zm-12.48,0h-2.39c2.83-2.76,3.42-6.25,.6-8.85-4.75-4.22-10.84,.43-10.84,.43,0,0-.16,0,.14-3.05,.45-3.04,6.09-5.64,11-2.18,4.75,3.33,5.21,8.27,1.49,13.64h0Zm-33.6,0c.3-.3,.59-.74,1.04-1.16,0,0-3.72-5.95-6.69-.44,0,0-4.3-.87-6.53,.88-.45,.29-.9,.57-1.2,.72h13.38Zm-32.69,0h.14s-3.86-6.67-12.47-.43c0,0-.89-7.11-7.14-4.93l-1.93,1.45s4.31,.72,3.71,3.93h17.7Zm-38.21,0h-6.24c1.64-1.31,2.83-2.33,3.42-4.94,.75-3.62,.75-8.41-2.37-7.97-3.27,.44-5.5,1.6-5.5,1.6,0,0,1.03-3.2,3.86-4.5,2.83-1.16,7.43-.14,10.1,5.37,0,0,6.99-4.49,11.3-3.2,4.16,1.16,6.99,4.79,6.99,4.79,0,0-4.32-2.47-10.55,.43-1.79,.87-4.75,3.33-6.99,5.21-1.48,1.16-2.82,2.18-4.01,3.2h0Zm-20.81,0h-6.39c-1.19-1.02-2.53-2.03-4.16-3.19-2.22-1.9-5.21-4.35-6.99-5.22-6.25-2.9-10.71-.43-10.71-.43,0,0,2.83-3.63,7.14-4.79,4.32-1.29,11.45,3.2,11.45,3.2,2.68-5.5,7.28-6.52,10.26-5.37,2.82,1.31,3.86,4.49,3.86,4.49,0,0-2.23-1.15-5.5-1.59-3.28-.43-3.28,4.35-2.53,7.98,.59,2.6,1.77,3.62,3.56,4.93h0Zm-27.2,0h-.15c-.59-3.2,3.86-3.93,3.86-3.93l-1.94-1.45c-6.24-2.19-7.13,4.93-7.13,4.93-8.63-6.23-12.48,.43-12.48,.43h17.83Zm-24.08,0h-2.08c-1.79-.3-3.12-1.61-3.12-1.61,0,0-4.47,2.18-5.81-1.88-1.48-4.07,3.42-5.94,3.42-5.94,0,0-1.19,6.96,4.47,5.21,5.79-1.87,.89-7.1-2.08-8.69-2.83-1.59-11.01-2.03-20.81,5.22-4.02,2.89-7.43,5.66-10.56,7.69h-6.39c2.37-1.16,6.39-3.78,12.77-8.85,14.57-11.59,27.06-9.56,31.21-6.66,4.02,2.89,9.97,6.09,19.47,2.03,0,0-2.52,8.12-16.5,5.8,0,0,0,6.23-3.26,7.53-.15,0-.44,.15-.74,.16h0Zm-13.38,0c-.3-.15-.59-.43-1.19-.72-2.23-1.74-6.54-.88-6.54-.88-2.97-5.5-6.7,.44-6.7,.44,.45,.43,.75,.87,.89,1.16h13.54Zm-29.73,0c4.01-2.04,8.91-6.97,8.32-10.89-.15-1.29-.45-3.62-1.78-4.63-5.95-4.35-8.91,1.87-8.91,1.87,0,0,4.45-2.31,5.95,1.75,1.33,4.2-2.68,7.25-5.21,9.71-.74,.72-1.49,1.74-2.83,2.17h4.46Zm-10.55,0h-3.27c-2.52-2.03-3.41-4.5-1.63-6.97,3.26-4.34,6.24-.14,6.24-.14v2.18s-5.06-.72-3.57,2.89c.29,1.01,1.2,1.6,2.23,2.03h0Zm-4.76,0c-2.82-2.76-3.41-6.23-.59-8.85,4.89-4.21,11,.43,11,.43,0,0,.3,0-.16-3.04-.45-3.04-6.09-5.65-10.99-2.18-4.76,3.33-5.36,8.26-1.49,13.63h2.23Zm227.87,0c-1.5,.57-3.43,.71-5.07,.27-.29,0-.59-.14-.87-.28h-4.33c1.34,.72,2.68,1.15,3.57,1,0,0-.59,.59-3.72-1h-6.39c4.31,3.04,8.17,4.64,12.33,3.76,3.12-.72,5.95-2.16,7.89-3.76h-3.42Zm-53.07,0c.75,.14,1.5,.14,2.08,0h-2.08Zm-177.03,0h2.23c2.08,2.02,5.36,3.75,9.37,4.35l1.49,.43v1.16s-8.78,0-12.78-5.5c-.16-.15-.3-.3-.3-.43h0Zm3.72,0c1.94,1.58,4.75,3.04,7.89,3.75,4.29,.88,8.01-.72,12.47-3.75h-6.39c-3.28,1.59-3.87,1-3.87,1,1.05,.15,2.23-.29,3.72-1h-4.46c-.3,.14-.45,.28-.74,.27-1.79,.43-3.72,.3-5.36-.28h-3.27Zm30.02,0h13.54c1.19,.87,1.64,.87,3.57,1.44,2.38,.88,2.68,.88,2.68,.88,0,0-4.32,3.49-7.58,4.05-3.27,.59-8.62-1.3-8.62-1.3,0,0-4.02,4.64-6.1,.74,0,0-4.31-.87-4.61-2.47-.44-1.74,.89-1.9,.89-1.9,0,0,3.57,3.49,5.2,1.9,1.19-1.31,1.79-2.03,1.03-3.33h0Zm24.84,0h2.08c-.74,.14-1.34,.14-2.08,0h0Zm8.46,0h17.69c.59,3.33,4.31,4.35,7.57,3.33,3.28-1.02,4.92-2.47,4.92-2.47l1.62,1.89-9.51,6.95s-2.22,.15-4.75,.15c-2.37,0-7.14-1.02-7.14-1.02,0,0-.29-1.88-3.72-5.37-2.22-2.76-6.1-3.33-6.69-3.47h0Zm38.5,0h6.39c.75,.59,1.49,1.31,2.38,2.02,2.22,2.18,7.58,2.18,9.66,0,.91-.72,1.79-1.45,2.53-2.02h6.24c-7.73,6.52-9.37,7.96-9.37,7.96l-2.67,2.47-3.72,.43c-.44-.14-1.05-.58-2.08-2.9,0,0-1.49-1.45-9.37-7.97h0Zm47.71,0h17.7c-.59,.14-4.47,.71-6.7,3.46-3.41,3.49-3.71,5.37-3.71,5.37,0,0-4.75,1.02-7.28,1.02-2.37,0-4.61-.15-4.61-.15l-9.51-6.95,1.63-1.89s1.63,1.45,4.9,2.47c3.11,1.02,6.99,0,7.57-3.33h0Zm37.01,0h13.38c-.59,1.31,0,2.02,1.19,3.33,1.64,1.59,5.06-1.89,5.06-1.89,0,0,1.34,.15,1.05,1.89-.45,1.59-4.76,2.47-4.76,2.47-1.94,3.91-5.95-.74-5.95-.74,0,0-5.35,1.9-8.47,1.31-3.27-.57-7.58-4.06-7.58-4.06,0,0,.3,0,2.67-.87,1.94-.58,2.23-.58,3.42-1.45h0Zm44.59,0h2.39c-.16,.14-.16,.28-.3,.43-4.02,5.5-12.78,5.5-12.78,5.5v-1.16s1.47-.43,1.47-.43c4.02-.59,7.14-2.32,9.21-4.35h0Zm10.86,0h4.01c1.78,3.62,7.28,6.82,9.06,8.56l-1.64,.71-2.08-.43s-7.43-4.35-9.36-8.84h0Zm12.78,0c.16,.29,.3,.43,.45,.58,2.22,2.61,2.68,.87,3.27-.58h-3.72Zm7.57,0h5.65c.16,1.88-2.07,7.38-3.26,8.55-1.19,1.3-4.9-.15-4.9-.15,0,0,2.67-4.06,2.83-6.81,.14-.59,0-1.16-.31-1.59Z"/>
    <path class="cls-2" d="M286.43,10.88h-2.38c-2.08-2.03-5.36-3.77-9.37-4.35l-1.48-.43v-1.16s8.77,0,12.93,5.51c0,.14,.16,.29,.3,.43h0Zm-3.86,0c-1.94-1.74-4.76-3.05-7.88-3.77-4.16-.87-8.03,.72-12.49,3.77h6.4c3.26-1.59,3.86-1.01,3.86-1.01-1.03-.14-2.23,.29-3.72,1.01h4.47c.3-.15,.45-.3,.74-.3,1.78-.43,3.72-.43,5.35,.3h3.28Zm-30.02,0h-13.54c-1.19-.87-1.64-.87-3.56-1.45-2.38-.87-2.69-.87-2.69-.87,0,0,4.31-3.47,7.59-4.06,3.27-.59,8.62,1.16,8.62,1.16,0,0,4.01-4.49,6.1-.58,0,0,4.3,.87,4.75,2.46,.3,1.59-1.05,1.88-1.05,1.88,0,0-3.56-3.47-5.2-1.88-1.19,1.31-1.78,2.03-1.03,3.33h0Zm-24.82,0h-2.09c.75-.29,1.5-.15,2.09,0h0Zm-8.33,0h-17.69c-.59-3.33-4.46-4.35-7.72-3.33-3.28,1.01-4.9,2.47-4.9,2.47l-1.5-1.88,9.37-6.96s2.23-.15,4.76-.15c2.37,0,7.28,1.02,7.28,1.02,0,0,.15,1.87,3.57,5.35,2.22,2.76,6.09,3.33,6.83,3.49h0Zm-38.64,0h-6.25c-.74-.59-1.63-1.3-2.54-2.03-2.22-2.17-7.42-2.17-9.65,0-.9,.73-1.78,1.45-2.53,2.03h-6.24c7.74-6.52,9.37-7.97,9.37-7.97l2.68-2.47,3.72-.44c.45,.15,1.05,.59,2.08,2.91,0,0,1.48,1.45,9.36,7.97h0Zm-47.71,0h-17.7c.59-.14,4.47-.72,6.7-3.49,3.42-3.46,3.72-5.35,3.72-5.35,0,0,4.76-1.02,7.28-1.02s4.61,.15,4.61,.15l9.52,6.94-1.64,1.9s-1.63-1.45-4.9-2.47c-3.12-1.02-6.98,0-7.58,3.33h0Zm-23.78,0h-2.08c.59-.14,1.33-.29,2.08,0h0Zm-13.23,0h-13.38c.6-1.3,.14-2.03-1.19-3.33-1.63-1.59-5.04,1.88-5.04,1.88,0,0-1.33-.29-1.04-1.88,.45-1.59,4.75-2.46,4.75-2.46,1.94-3.91,5.95,.58,5.95,.58,0,0,5.36-1.75,8.62-1.16,3.12,.59,7.43,4.06,7.43,4.06,0,0-.29,0-2.67,.87-1.94,.59-2.23,.59-3.42,1.45h0Zm-23.04,0h-6.39c-3.12-1.59-3.72-1.01-3.72-1.01,.89-.15,2.23,.29,3.57,1.01h-4.32c-.29-.14-.44-.29-.73-.3-1.8-.43-3.72-.43-5.21,.3h-3.41c1.92-1.74,4.75-3.05,7.87-3.77,4.17-.87,8.03,.72,12.34,3.77h0Zm-21.55,0c2.08-2.03,5.2-3.77,9.21-4.35l1.49-.44v-1.16s-8.77,0-12.78,5.51c0,.14-.16,.28-.3,.43h2.38Zm-10.71,0h-4.15c-1.79-3.63-7.28-6.81-9.07-8.7l1.63-.58,2.09,.44s7.42,4.34,9.5,8.84h0Zm-12.77,0c-.3-.3-.45-.43-.6-.72-2.22-2.47-2.68-.73-3.27,.72h3.87Zm-7.73,0h-5.5c-.3-1.89,1.93-7.39,3.12-8.7,1.19-1.16,4.91,.3,4.91,.3,0,0-2.69,4.06-2.83,6.66,0,.72,0,1.31,.3,1.74Zm-5.5,0h5.5c.73,1.31,2.53,1.74,3.26,1.01,.3-.29,.45-.72,.59-1.01h3.87c1.78,2.18,2.22,3.33,1.93,5.66l-3.42-.02c-.15-1-.29-1.58-.29-1.58,0,0-1.05,.87-2.24,1.6h-4.16c-2.08-1.45-4.9-4.35-5.05-5.66h0Zm21.85,0h4.15c.16,.43,.3,1.01,.45,1.59v4.07h-8.91c0-.87,0-1.75,.14-2.91,0,0,4.47,3.92,4.61-.57,.16-.72-.13-1.45-.44-2.18h0Zm12.48,0h2.38c-1.79,1.74-2.68,3.77-2.37,5.66l-2.38-.02c.29-1.87,1.04-3.76,2.37-5.64h0Zm3.72,0c-1.94,1.59-2.98,3.63-2.22,5.64l6.97,.02v-.73s-5.06,.73-3.72-2.9c.45-1.01,1.19-1.59,2.38-2.02h-3.41Zm9.35,0h4.32c2.37,1.16,4.9,3.33,6.53,5.66h-4.61c-1.19-1.31-2.37-2.47-3.41-3.49-.75-.73-1.64-1.73-2.83-2.17h0Zm4.47,0c1.94,.86,4.61,2.61,8.62,5.64l5.5,.02c-2.83-2.18-5.34-4.07-7.72-5.66h-6.39Zm16.05,0h13.38c-.3,.14-.75,.44-1.19,.72-2.22,1.74-6.54,.87-6.54,.87-2.97,5.51-6.54-.43-6.54-.43,.3-.43,.6-.87,.89-1.16h0Zm24.53,0h2.08c.29,0,.44,0,.74,.14,1.92,.73,2.68,3.49,2.97,5.51h-4.61c-.45-.59-1.19-1.02-2.23-1.45-2.51-.72-3.72,.14-4.15,1.45h-3.87c-.16-.73-.15-1.45,.14-2.18,1.5-4.2,5.81-1.89,5.81-1.89,0,0,1.34-1.3,3.12-1.59h0Zm8.17,0h17.7c-.59,3.19,3.86,3.91,3.86,3.91l-2.08,1.31c-.6,.29-1.05,.29-1.49,.43l-1.63,.02c-3.42-.59-4.01-5.22-4.01-5.22-8.62,6.23-12.49-.44-12.49-.44h.14Zm38.21,0h6.24c-1.63,1.31-2.83,2.32-3.42,4.93,0,.14,0,.43-.15,.73l-9.66-.02c1.04-.85,2.09-1.74,2.98-2.45,1.48-1.16,2.82-2.31,4-3.19h0Zm20.96,0h6.25c1.19,.88,2.68,2.02,4.16,3.19,.89,.72,1.94,1.6,2.97,2.47h-9.81c0-.29-.14-.59-.14-.73-.61-2.6-1.8-3.62-3.43-4.93h0Zm27.2,0h17.69s-3.86,6.67-12.48,.44c0,0-.59,4.63-4.02,5.22l-1.63-.02c-.45-.14-.89-.14-1.48-.43l-1.94-1.31s4.47-.72,3.86-3.91h0Zm23.93,0h2.09c1.78,.29,3.12,1.59,3.12,1.59,0,0,4.45-2.31,5.79,1.89,.3,.72,.44,1.45,.3,2.16h-4.01c-.45-1.29-1.64-2.16-4.16-1.44-1.19,.43-1.79,.87-2.24,1.45l-4.75-.02c.3-2.02,1.05-4.77,3.12-5.5,.29-.14,.44-.14,.73-.14h0Zm13.38,0h13.54c.15,.29,.44,.72,.89,1.16,0,0-3.72,5.95-6.7,.43,0,0-4.31,.87-6.53-.87-.45-.28-.9-.58-1.19-.72h0Zm23.19,0h6.4c-1.8,.88-4.61,2.61-8.63,5.66h-5.5c2.83-2.18,5.35-4.07,7.72-5.66h0Zm6.54,0c-2.23,1.16-4.9,3.33-6.54,5.66h4.76c1.04-1.31,2.38-2.47,3.42-3.49,.75-.73,1.63-1.73,2.83-2.17h-4.47Zm10.55,0h3.28c2.08,1.59,3.11,3.62,2.37,5.66h-6.99v-.73s5.05,.73,3.57-2.9c-.3-1.01-1.19-1.58-2.23-2.02h0Zm4.76,0c1.78,1.74,2.67,3.77,2.37,5.66l2.38-.02c-.3-1.87-1.04-3.76-2.37-5.64h-2.38ZM18.88,16.54c-1.19-1.6-3.12-2.91-6.25-3.2-2.97-.29-5.65,1.31-7.57,3.18l13.82,.02Zm-13.82-.02l13.82,.02c1.04,1.59,1.19,3.33,.6,4.78-1.2,2.76-4.02,3.91-4.02,3.91,0,0,2.83-.29,4.01-.44,1.19-.29,4.01-.87,6.1,.15,0,0,1.04-3.04,1.04-5.66,0-1.16-.15-2.03-.15-2.76l3.42,.02c0,.58-.15,1.31-.29,2.02-.75,4.2-1.05,5.79,.44,7.69,1.34,1.74,4.01,6.66,4.01,6.66l-5.5-4.06s-1.78-1.31-4.46-.87c-2.53,.44-12.19,3.19-12.48-5.07,0,0,5.21-.15,4.61-2.62-.61-2.45-6.84-3.18-10.26-.29l-3.42,2.89s1.05,5.51,6.25,8.99c5.2,3.48,8.32,2.76,7.73,1.31-.59-1.45-.9-3.77,3.56-1.88,4.47,1.88,7.28,4.48,7.28,8.12,.02,.58,0,1.16,0,1.45h-3.42c-2.38-1.74-5.94-3.04-8.33-2.76-2.37,.15-6.82-.44-10.69-6.38-3.72-5.94-3.72-7.83-3.72-7.83l.59-3.47s1.19-2.03,3.28-3.93h0Zm14.71,.02c.89,.58,1.5,.87,1.94,.87,.59,0,1.48-.44,2.22-.87h-4.16Zm12.49,0c.45,4.49,3.86,5.21,3.86,5.21,4.16,7.98,11.3,4.07,11.3,4.07,0,0-.9-.58-3.86-2.76-2.08-1.31-2.23-3.62-2.38-6.52h-8.91Zm14.42-.02l2.38,.02c.14,1.16,.73,2.18,1.78,3.04,4.75,4.34,10.85-.3,10.85-.3,0,0,.14,0-.16,3.04-.44,3.04-6.09,5.66-10.99,2.18-2.97-2.18-4.17-4.93-3.86-7.99h0Zm3.87,0c.14,.44,.29,.88,.59,1.32,3.28,4.19,6.39,.14,6.39,.14v-1.45l-6.97-.02h0Zm17.82,.02h4.61c1.34,1.74,1.94,3.62,1.79,5.21-.15,1.31-.45,3.62-1.79,4.64-5.79,4.35-8.91-1.89-8.91-1.89,0,0,4.45,2.33,5.94-1.74,.75-2.46-.3-4.49-1.64-6.23h0Zm6.84-.02l5.5,.02c.91,.72,1.8,1.31,2.83,2.02,9.66,7.25,17.69,6.81,20.52,5.21,2.37-1.29,5.94-4.92,4.3-7.23h4.61c.29,1.16,.3,2.02,.3,2.02,13.66-2.47,16.35,5.79,16.35,5.79-9.52-4.06-15.47-.87-19.48,2.03-4.02,2.89-16.35,4.93-30.92-6.81-1.33-1.16-2.67-2.18-4.01-3.06h0Zm22.89,.02c.45,2.6,3.58,3.76,3.58,3.76,0,0-.3-2.18,.3-3.76h-3.87Zm33.6,0l1.63-.02c-.59,.16-1.04,.16-1.63,.02h0Zm14.86-.02c-1.47,1.17-2.97,2.18-4,2.62-6.25,3.04-10.56,.44-10.56,.44,0,0,2.83,3.76,7.14,4.93,4.15,1.3,11.3-3.2,11.3-3.2,2.53,5.51,7.13,6.52,10.11,5.22,2.81-1.15,3.72-4.5,3.72-4.5,0,0-2.23,1.31-5.36,1.74-3.12,.3-3.28-3.76-2.68-7.23l-9.66-.02h0Zm31.52,.02h9.81c1.5,1.16,2.98,2.16,4.03,2.6,6.24,3.04,10.7,.43,10.7,.43,0,0-2.83,3.77-7.14,4.93-4.32,1.31-11.44-3.19-11.44-3.19-2.67,5.51-7.28,6.52-10.26,5.22-2.83-1.16-3.86-4.48-3.86-4.48,0,0,2.23,1.29,5.5,1.72,3.12,.3,3.26-3.76,2.67-7.23h0Zm23.19-.02c.6,.16,1.19,.16,1.63,.02l-1.63-.02h0Zm20.52,0l4.75,.02c-1.62,2.31,1.94,5.94,4.32,7.25,2.83,1.6,11,2.02,20.81-5.22,.9-.73,1.79-1.3,2.83-2.02h5.5c-1.33,.87-2.67,1.88-4.16,3.04-14.57,11.74-27.04,9.7-31.21,6.81-4.01-2.9-9.95-6.09-19.48-2.02,0,0,2.68-8.27,16.5-5.8,0,0,.02-.87,.16-2.04h0Zm11.15,0c.74,1.6,.3,3.78,.3,3.78,0,0,3.12-1.16,3.72-3.78h-4.01Zm29.27,.02h4.76c-1.48,1.74-2.53,3.76-1.64,6.23,1.34,4.07,5.8,1.74,5.8,1.74,0,0-2.97,6.23-8.92,1.88-1.33-1.02-1.63-3.33-1.78-4.64-.14-1.58,.59-3.47,1.78-5.21h0Zm15.76,0h6.99c-.16,.43-.45,.87-.74,1.29-3.27,4.22-6.25,.15-6.25,.15v-1.45h0Zm8.47,0c-.14,1.16-.74,2.18-1.78,3.04-4.9,4.34-11-.3-11-.3,0,0-.15,0,.15,3.04,.45,3.05,6.1,5.66,10.99,2.18,3.12-2.18,4.47-4.93,4.02-7.99l-2.38,.02h0ZM22.16,40.88c-2.83-2.17-6.4-2.17-10.26,0h10.26Zm-10.26,0h10.26c.73,.72,1.48,1.46,2.07,2.33,1.34,1.87,1.79,3.91,1.64,5.79h-4.76c.15-1.74-.14-3.77-1.78-5.51-3.41-4.06-9.06-1.16-11.58,5.5h-1.94c.73-2.46,2.08-5.21,4.45-6.96,.59-.43,1.19-.72,1.64-1.16h0Zm12.03,0c.15,.15,.3,.29,.45,.43,1.78,1.74,2.68,1.9,2.97-.43h-3.42Zm-5.05,8.12c.74-1.3,1.34-3.2-1.33-5.08-3.27-2.61-6.84,.3-8.92,5.08h2.08c.45-1.16,1.04-2.03,2.08-2.47,2.38-1,2.83,1.02,2.83,2.47h3.27Zm-13.07,0h1.94c-.61,1.31-1.06,2.9-1.21,4.49l-.44,1.45h-1.19s0-2.75,.9-5.95h0Zm2.81,0c-.59,1.3-1.19,2.89-1.48,4.48-1.64,7.26,4.17,13.34,11.3,23.19,1.33,1.9,2.38,3.63,3.11,5.38h3.72c-1.33-3.05-3.27-6.38-5.94-9.71-11.44-14.78-9.66-16.52-9.66-16.52-.29,3.62,6.55,12.76,11.89,12.02,1.19-.28,3.58-.43,4.47-1.88,4.31-5.94-1.78-8.98-1.78-8.98,0,0,2.22,4.49-1.79,5.94-4.01,1.46-7.13-2.6-9.52-5.06-.89-1.03-2.08-1.9-2.52-3.63-.3-1.74-.3-3.78,.3-5.22h-2.08Zm6.99,0h3.27c-.45,.72-1.04,1.16-1.04,1.16h-2.23s0-.43,0-1.16h0Zm5.5,0h4.76c-.3,2.75-1.93,5.07-3.86,5.36-2.97,.43-2.97,.14-2.97,.14,0,0,1.79-2.47,2.08-5.5h0Zm-8.77,33.05H4.91c.45-1.6,.74-2.76,.74-2.76,0,0-4.47-4.06-.59-6.08,0,0,.73-4.35,2.37-4.78,1.64-.29,1.93,1,1.93,1,0,0-3.57,3.63-1.93,5.23,1.64,1.59,2.53,2.02,4.47,.14,0,0,5.94,3.76,.44,6.81v.44Zm-7.42,0h7.42c.16,1.01,.45,4.2-.89,6.09-1.48,2.31-1.34,2.31-2.08,4.78-.9,2.46-.89,2.61-.89,2.61,0,0-3.42-4.35-4.02-7.54-.3-1.74,0-4.2,.45-5.94h0Zm16.64,0c3.72,7.39,3.12,13.19,1.94,15.51-1.63,2.9-6.68,7.83-8.47,2.03-1.94-5.66,5.05-4.49,5.05-4.49,0,0-1.93-4.93-5.93-3.49-4.03,1.45-1.8,5.95-1.8,5.95,0,0-2.68,2.76-1.48,5.95,1.33,3.33,7.57,3.33,7.57,3.33-.73,4.05-.59,7.09,0,9.42h3.72c-.45-5.66,1.92-9.58,3.86-12.47,2.23-3.19,3.86-11.45-.75-21.74h-3.72Zm-7.87,34.21H6.99q.15-.16,.29-.3c2.98-2.47,3.42-6.96,3.42-6.96,0,0,3.87,2.32,2.98,7.25Zm-6.69,0h6.69c-.3,1.44-1.05,3.33-2.53,5.36,0,0,6.98,.87,4.76,7.1l-1.34,2.03s-.59-4.49-3.86-3.91c-2.83,.59-4.01,3.78-3.43,6.68H2.68l-1.49-1.9s-.15-2.31-.15-4.77c0-2.32,1.05-7.24,1.05-7.24,0,0,1.62-.15,4.89-3.33h0Zm11.44,0h3.72c.15,2.16,.73,4.48,1.92,7.25,0,0-4.15-1.45-5.64-7.25h0Zm5.94,17.24h-4.31c1.05-4.64-.74-7.68-.74-7.68,0,0,3.72,2.89,4.91,7.25,0,.14,.14,.28,.14,.43Zm-21.69,0H7.28c0,.43,.16,.72,.16,1.15,1.05,3.2,2.53,4.8,2.53,4.8l-1.94,1.74-5.35-7.68h0Zm17.39,0c-.3,1.01-.58,2.02-1.03,3.19-.91,1.74-3.28,4.78-5.06,7.1-9.07,11.47-11.15,13.63-11.15,13.63-2.23,.87-2.68,1.6-2.83,2.04l.45,3.76,2.37,2.6s2.08,2.18,11.15,13.49c1.78,2.18,4.16,5.21,5.05,6.95,.45,1.16,.74,2.18,1.04,3.05h4.31c.75-4.2-3.41-10.86-3.41-10.86,5.5-2.61,6.53-7.26,5.35-10.15-1.19-2.76-4.46-3.77-4.46-3.77,0,0,1.19,2.16,1.63,5.36,.3,3.33-4.31,3.33-7.87,2.46-3.72-.72-4.31-3.05-6.99-5.79-1.94-2.31-1.94-7.54,0-9.86,2.67-2.9,3.27-5.08,6.97-5.95,3.58-.87,8.18-.87,7.89,2.47-.45,3.33-1.64,5.51-1.64,5.51,0,0,3.27-1.02,4.46-3.77,1.19-2.91,.14-7.68-5.35-10.3,0,0,4.16-6.81,3.41-11.15h-4.31Zm-12.79,55.8H2.68l5.36-7.54,1.93,1.6s-1.48,1.59-2.53,4.93c0,.3-.16,.73-.16,1.01Zm-4.6,0H7.28c-.58,3.04,.61,6.08,3.44,6.66,3.26,.59,3.86-3.91,3.86-3.91l1.34,2.04c2.22,6.38-4.76,7.1-4.76,7.1,1.48,2.03,2.22,3.93,2.54,5.36H6.99c-3.27-3.05-4.91-3.33-4.91-3.33,0,0-1.04-4.79-1.04-7.24s.15-4.64,.15-4.64l1.49-2.03h0Zm17.39,0h4.31c0,.15-.14,.43-.15,.59-1.18,4.2-4.9,7.1-4.9,7.1,0,0,1.79-3.04,.74-7.69h0Zm2.09,17.24h-3.72c1.49-5.79,5.65-7.1,5.65-7.1-1.19,2.61-1.78,5.08-1.93,7.1Zm-15.17,0h6.7c.88,5.09-2.98,7.25-2.98,7.25,0,0-.45-4.49-3.42-6.97-.15,0-.15-.14-.3-.29h0Zm11.44,0c-.59,2.33-.74,5.37,0,9.28,0,0-6.25,0-7.58,3.34-1.2,3.19,1.48,5.8,1.48,5.8,0,0-2.23,4.49,1.78,5.94,4.01,1.45,5.95-3.48,5.95-3.48,0,0-6.98,1.16-5.04-4.5,1.78-5.65,6.83-.72,8.46,2.04,1.19,2.31,1.79,8.12-1.94,15.51h3.72c4.61-10.3,2.98-18.42,.75-21.61-1.94-2.89-4.16-6.81-3.86-12.32h-3.72Zm-6.1,33.93H4.91c-.45-1.74-.75-4.21-.45-5.95,.6-3.19,4.02-7.53,4.02-7.53,0,0,0,.29,.89,2.6,.73,2.47,.59,2.47,2.08,4.78,1.33,1.75,1.05,4.93,.89,6.1Zm-7.42,0h7.42v.28c5.5,3.05-.44,6.82-.44,6.82-1.94-1.89-2.83-1.45-4.47,.14-1.64,1.6,1.94,5.08,1.94,5.08,0,0-.3,1.45-1.94,1.01-1.64-.43-2.37-4.64-2.37-4.64-3.87-2.03,.59-6.08,.59-6.08,0,0-.3-1.16-.74-2.6h0Zm16.64,0c-.73,1.58-1.78,3.48-3.11,5.22-7.13,9.71-12.94,15.79-11.3,22.9,.3,1.6,.89,3.19,1.48,4.49h2.08c-.6-1.45-.6-3.48-.3-5.06,.45-1.74,1.63-2.76,2.52-3.63,2.38-2.47,5.5-6.52,9.51-5.07,4.01,1.45,1.8,5.94,1.8,5.94,0,0,6.09-3.04,1.78-8.98-.89-1.31-3.26-1.6-4.47-1.74-5.35-.73-12.19,8.25-11.88,11.88,0,0-1.79-1.9,9.66-16.53,2.68-3.19,4.61-6.37,5.94-9.42h-3.72Zm4.32,32.61h-4.76c-.29-3.04-2.08-5.5-2.08-5.5,0,0,0-.14,2.97,.29,1.93,.3,3.56,2.47,3.86,5.21h0Zm-6.99,0h-3.27c0-.58,0-1.16,0-1.16h2.24s.59,.43,1.04,1.16h0Zm-11.13,0h-1.94c-.89-3.04-.89-5.8-.89-5.8h1.19l.45,1.31c.15,1.74,.59,3.19,1.2,4.49Zm-1.94,0h1.94c2.51,6.67,8.17,9.57,11.58,5.51,1.64-1.74,1.94-3.77,1.78-5.51h4.76c.15,1.89-.3,3.78-1.63,5.65-3.42,4.93-8.48,5.37-13.97,1.31-2.38-1.74-3.72-4.49-4.46-6.96h0Zm2.82,0c2.08,4.79,5.65,7.69,8.92,5.08,2.67-1.88,2.08-3.77,1.33-5.08h-3.27c0,1.46-.45,3.49-2.83,2.47-1.04-.43-1.62-1.3-2.08-2.47h-2.08Zm17.24,20.88c.15-1.74-.3-3.77-1.64-5.65-3.41-4.93-8.47-5.37-13.97-1.3-2.37,1.74-3.72,4.48-4.45,6.95h1.94c2.51-6.67,8.17-9.57,11.58-5.5,1.64,1.74,1.93,3.76,1.78,5.5h4.76Zm-6.99,0h-3.27c0-1.45-.45-3.33-2.83-2.47-1.04,.44-1.62,1.31-2.08,2.47h-2.08c2.09-4.78,5.65-7.67,8.92-5.07,2.67,2.03,2.08,3.91,1.33,5.07Zm-13.07,0h1.94c-.61,1.29-1.05,2.89-1.2,4.49l-.45,1.45h-1.19s0-2.75,.9-5.94h0Zm2.81,0c-.59,1.45-1.19,2.91-1.48,4.5-1.64,7.25,4.17,13.33,11.3,23.19,1.33,1.9,2.38,3.62,3.11,5.37l3.72-.02c-1.33-3.03-3.27-6.36-5.93-9.7-11.44-14.65-9.67-16.52-9.67-16.52-.29,3.62,6.55,12.74,11.89,12.03,1.2-.15,3.58-.43,4.47-1.74,4.31-5.95-1.78-9.13-1.78-9.13,0,0,2.22,4.48-1.79,5.94-4.01,1.45-7.13-2.62-9.51-5.07-.9-.87-2.08-1.9-2.53-3.63-.3-1.74-.3-3.62,.3-5.21h-2.08Zm6.99,0h3.27c-.45,.72-1.04,1.31-1.04,1.31h-2.23s0-.59,0-1.31h0Zm5.5,0h4.76c-.3,2.89-1.93,5.09-3.86,5.37-2.98,.43-2.97,.14-2.97,.14,0,0,1.78-2.47,2.07-5.51h0Zm-8.77,33.06H4.91c.45-1.6,.74-2.6,.74-2.6,0,0-4.47-4.21-.59-6.24,0,0,.73-4.34,2.37-4.64,1.64-.43,1.94,1.02,1.94,1.02,0,0-3.58,3.49-1.94,5.07,1.64,1.6,2.53,2.03,4.47,.14,0,0,5.94,3.79,.44,6.82v.44Zm-7.42,0h7.42c.16,1,.45,4.35-.89,6.08-1.48,2.32-1.34,2.32-2.08,4.79-.88,2.47-.88,2.6-.88,2.6,0,0-3.42-4.2-4.01-7.54-.31-1.74,0-4.2,.45-5.94h0Zm16.64,0c3.72,7.38,3.12,13.19,1.94,15.5-1.63,2.91-6.68,7.83-8.46,2.18-1.94-5.8,5.04-4.63,5.04-4.63,0,0-1.93-4.94-5.93-3.49-4.03,1.45-1.8,5.94-1.8,5.94,0,0-2.68,2.76-1.48,5.95,1.33,3.33,7.57,3.33,7.57,3.33-.73,4.05-.59,7.1,0,9.41h3.72c-.45-5.65,1.92-9.56,3.86-12.45,2.23-3.18,3.86-11.46-.75-21.76l-3.72,.02h0Zm-7.87,34.21l-6.69-.02q.15-.14,.29-.29c2.98-2.46,3.44-6.96,3.44-6.96,0,0,3.86,2.33,2.97,7.26Zm-6.69-.02l6.69,.02c-.3,1.44-1.05,3.32-2.52,5.35,0,0,6.97,.87,4.75,7.1l-1.34,2.03s-.59-4.5-3.87-3.91c-2.82,.56-4,3.76-3.4,6.65l-4.61,.02-1.49-1.9s-.16-2.31-.15-4.79c0-2.31,1.05-7.25,1.05-7.25,0,0,1.62-.14,4.89-3.33h0Zm11.44,0h3.72c.15,2.18,.73,4.5,1.92,7.25,0,0-4.16-1.45-5.64-7.25h0Zm5.64,17.27h-4.01c1.05-4.51-.73-7.54-.73-7.54,0,0,3.42,2.31,4.61,6.65,.14,.29,.14,.58,.14,.88Zm-21.4,0l4.61-.02c0,.44,.14,.73,.14,1.16,1.04,3.19,2.53,4.79,2.53,4.79l-1.93,1.59-5.36-7.53h0Zm17.39,0c-.14,1-.59,2.16-1.04,3.32-.89,1.74-3.27,2.9-5.05,5.22-9.06,11.59-11.59,12.32-11.59,12.32-2.24,1.02-2.22,4.79-2.38,5.07l.45,11.31,2.37,2.75s2.08,2.03,11.15,13.48c1.78,2.18,4.16,5.22,5.05,6.97,.45,1,.74,2.03,1.04,3.04h4.31c.75-4.2-3.41-10.87-3.41-10.87,5.49-2.61,4.75-4.49,3.57-7.38-1.19-2.76-4.45-3.78-4.45-3.78,2.51,6.82-1.36,7.83-4.61,6.09-2.97-1.6-5.36-5.37-6.84-6.96-1.94-2.17-1.94-16.81,0-19.14,2.68-2.76,3.27-5.07,6.98-5.94,3.57-.73,5.21-1.3,5.79,2.32-.44,3.18-.59,4.77-.59,4.77,0,0,2.67-1.29,4-4.2,1.19-2.89,.6-6.66-4.75-9.27,0,0,4.47-4.93,4.01-9.12h-4.01Zm-12.77,63.48H2.67l5.36-7.54,1.94,1.6s-1.48,1.59-2.53,4.78c0,.44-.15,.72-.14,1.16Zm-4.62,0H7.29c-.6,3.05,.59,6.09,3.41,6.67,3.27,.58,3.86-3.91,3.86-3.91l1.34,2.03c2.22,6.24-4.75,7.1-4.75,7.1,1.48,2.03,2.23,3.91,2.52,5.38H6.99c-3.27-3.2-4.91-3.33-4.91-3.33,0,0-1.05-4.94-1.05-7.25,0-2.47,.16-4.8,.16-4.8l1.48-1.88h0Zm17.39,0h4.31c0,.15-.14,.29-.14,.58-1.19,4.2-4.9,7.09-4.9,7.09,0,0,1.78-3.03,.73-7.67h0Zm2.09,17.25h-3.72c1.48-5.8,5.64-7.25,5.64-7.25-1.19,2.76-1.78,5.07-1.92,7.25Zm-15.17,0h6.69c.89,4.93-2.97,7.25-2.97,7.25,0,0-.45-4.5-3.42-6.96-.15,0-.15-.15-.3-.29h0Zm11.44,0c-.6,2.31-.74,5.36,0,9.27,0,0-6.24,0-7.58,3.2-1.19,3.33,1.48,5.94,1.48,5.94,0,0-2.23,4.49,1.8,5.94,4,1.3,5.93-3.48,5.93-3.48,0,0-6.98,1.16-5.04-4.49,1.78-5.66,6.83-.88,8.46,2.03,1.19,2.31,1.79,8.12-1.94,15.51h3.72c4.62-10.3,2.98-18.41,.75-21.6-1.94-2.9-4.16-6.81-3.86-12.33h-3.72Zm-6.1,33.92H4.91c-.45-1.89-.75-4.2-.45-5.95,.6-3.34,4.02-7.54,4.02-7.54,0,0,0,.15,.89,2.6,.73,2.48,.59,2.48,2.08,4.64,1.33,1.89,1.05,5.09,.89,6.24Zm-7.42,0h7.42v.28c5.5,3.05-.44,6.67-.44,6.67-1.94-1.74-2.83-1.3-4.47,.29-1.63,1.59,1.93,5.08,1.93,5.08,0,0-.29,1.45-1.93,1.01-1.63-.43-2.37-4.64-2.37-4.64-3.87-2.03,.59-6.09,.59-6.09,0,0-.3-1.16-.74-2.6h0Zm16.64,0c-.73,1.59-1.78,3.33-3.11,5.21-7.13,9.71-12.94,15.8-11.3,22.9,.3,1.6,.89,3.2,1.49,4.49l2.07,.02c-.59-1.45-.59-3.48-.3-5.07,.45-1.74,1.64-2.76,2.54-3.63,2.37-2.46,5.49-6.52,9.51-5.07,4,1.45,1.79,5.79,1.79,5.79,0,0,6.09-3.04,1.78-8.85-.89-1.29-3.26-1.59-4.46-1.74-5.35-.72-12.19,8.27-11.9,11.88,0,0-1.77-1.87,9.66-16.52,2.68-3.33,4.61-6.52,5.94-9.42h-3.72Zm4.33,32.6h-4.76c-.3-3.03-2.08-5.5-2.08-5.5,0,0,0-.14,2.97,.29,1.94,.14,3.58,2.47,3.88,5.21h0Zm-6.99,0l-3.28,.02c0-.73,0-1.16,0-1.16h2.24s.59,.43,1.04,1.14h0Zm-11.14,0h-1.94c-.89-3.03-.89-5.94-.89-5.94h1.19l.45,1.45c.16,1.6,.59,3.2,1.19,4.49Zm-1.94,0h1.94c2.52,6.53,8.17,9.58,11.58,5.53,1.64-1.75,1.94-3.78,1.79-5.53h4.76c.14,1.75-.3,3.78-1.64,5.66-3.42,4.92-8.48,5.36-13.97,1.3-2.37-1.88-3.72-4.5-4.46-6.97h0Zm2.83,0c2.07,4.8,5.64,7.55,8.92,5.09,2.68-2.03,2.08-3.91,1.33-5.09l-3.28,.02c0,1.44-.44,3.33-2.82,2.45-1.03-.43-1.63-1.29-2.08-2.45l-2.07-.02h0Zm17.24,21.03c.15-1.74-.3-3.76-1.63-5.65-3.42-4.8-8.48-5.22-13.97-1.16-2.38,1.75-3.72,4.5-4.47,6.82h1.94c2.53-6.53,8.18-9.43,11.6-5.37,1.63,1.74,1.92,3.62,1.78,5.37h4.75Zm-6.99,0h-3.27c0-1.3-.45-3.33-2.83-2.32-1.04,.3-1.63,1.3-2.08,2.32h-2.08c2.08-4.63,5.64-7.54,8.92-4.93,2.52,1.89,2.08,3.78,1.33,4.93Zm-13.08,0h1.94c-.59,1.44-1.05,2.89-1.19,4.48l-.44,1.45h-1.19s0-2.75,.88-5.93h0Zm2.83,0c-.6,1.44-1.19,2.89-1.49,4.48-1.64,7.11,4.17,13.19,11.3,23.05,1.33,1.74,2.38,3.47,3.11,5.21h3.72c-1.33-3.03-3.27-6.23-5.94-9.55-11.44-14.64-9.66-16.38-9.66-16.38-.3,3.62,6.54,12.6,11.89,11.88,1.19-.14,3.58-.43,4.47-1.74,4.31-5.95-1.78-8.99-1.78-8.99,0,0,2.22,4.5-1.8,5.95-4,1.44-7.12-2.61-9.51-5.08-.89-.88-2.08-1.89-2.51-3.62-.31-1.6-.31-3.63,.29-5.22h-2.08Zm6.98,0h3.27c-.45,.87-1.04,1.31-1.04,1.31h-2.23v-1.31h0Zm5.5,0h4.75c-.3,2.89-1.94,5.06-3.86,5.36-2.98,.43-2.98,.3-2.98,.3,0,0,1.8-2.62,2.09-5.66h0Zm-8.77,32.74H4.91c.45-1.45,.74-2.6,.74-2.6,0,0-4.46-4.06-.59-6.08,0,0,.74-4.21,2.37-4.64,1.64-.43,1.94,1.03,1.94,1.03,0,0-3.58,3.47-1.94,5.07,1.64,1.59,2.53,2.03,4.47,.14,0,0,5.94,3.62,.44,6.67v.43Zm-7.42,0h7.42c.16,1.17,.45,4.35-.89,6.1-1.48,2.32-1.34,2.32-2.08,4.64-.89,2.46-.9,2.76-.9,2.76,0,0-3.41-4.35-4.01-7.54-.3-1.75,0-4.21,.45-5.95h0Zm16.64,0c3.72,7.41,3.12,13.19,1.94,15.51-1.62,2.76-6.68,7.69-8.46,2.04-1.94-5.66,5.04-4.49,5.04-4.49,0,0-1.94-4.93-5.95-3.49-4.01,1.45-1.78,5.95-1.78,5.95,0,0-2.67,2.61-1.48,5.79,1.33,3.33,7.58,3.33,7.58,3.33-.74,3.92-.59,6.96,0,9.28h3.72c-.3-5.51,1.92-9.42,3.86-12.33,2.23-3.18,3.86-11.3-.75-21.59h-3.72Zm-7.87,33.92H6.98c.16-.14,.16-.3,.3-.44,2.98-2.32,3.43-6.81,3.43-6.81,0,0,3.86,2.18,2.97,7.26Zm-6.7,0h6.7c-.3,1.45-1.04,3.19-2.53,5.36,0,0,6.99,.73,4.75,7.11l-1.33,2.03s-.59-4.5-3.86-3.91c-2.82,.58-4,3.62-3.43,6.66H2.69l-1.5-2.03s-.15-2.17-.15-4.64,1.04-7.25,1.04-7.25c0,0,1.64-.29,4.9-3.33h0Zm11.45,0h3.72c.14,2.03,.73,4.48,1.92,7.1,0,0-4.15-1.3-5.64-7.1h0Zm5.94,17.24h-4.31c1.04-4.63-.74-7.69-.74-7.69,0,0,3.72,2.92,4.91,7.12,0,.14,.14,.28,.14,.57Zm-21.69,0H7.28c.02,.3,.16,.72,.16,1.02,1.05,3.33,2.53,4.92,2.53,4.92l-1.94,1.61-5.34-7.55h0Zm17.38,0c-.3,.87-.59,1.9-1.05,3.04-.88,1.74-3.26,4.64-5.04,6.97-9.06,11.31-11.15,13.33-11.15,13.33l-2.37,2.76-.45,3.76c.16,.44,.59,1.02,2.83,2.03,0,0,2.08,2.03,11.15,13.63,1.78,2.32,4.16,5.21,5.06,7.1,.45,1.02,.73,2.18,1.03,3.18h4.32c.74-4.34-3.42-11.15-3.42-11.15,5.5-2.61,6.53-7.39,5.35-10.3-1.19-2.89-4.45-3.9-4.45-3.9,0,0,1.19,2.31,1.63,5.64,.29,3.19-4.32,3.19-7.88,2.47-3.71-.88-4.31-3.19-6.98-5.95-1.94-2.31-1.93-7.54,0-9.85,2.68-2.76,3.27-5.07,6.98-5.8,3.58-.87,8.17-.87,7.88,2.32-.45,3.33-1.64,5.51-1.64,5.51,0,0,3.27-1.02,4.46-3.78,1.19-2.89,.14-7.52-5.35-10.14,0,0,4.16-6.67,3.41-10.87h-4.31Zm-12.77,55.8H2.67l5.36-7.67,1.94,1.6s-1.49,1.74-2.53,4.92c0,.43-.16,.73-.14,1.16Zm-4.62,0H7.29c-.61,2.91,.59,6.09,3.41,6.53,3.27,.72,3.86-3.77,3.86-3.77l1.34,2.03c2.22,6.23-4.75,7.1-4.75,7.1,1.48,2.03,2.23,3.78,2.53,5.37H6.98c-3.26-3.2-4.89-3.34-4.89-3.34,0,0-1.05-4.92-1.05-7.39,0-2.31,.15-4.63,.15-4.63l1.48-1.9h0Zm17.39,0h4.32c0,.14-.15,.29-.15,.44-1.19,4.35-4.91,7.11-4.91,7.11,0,0,1.79-2.91,.74-7.55h0Zm2.09,17.26h-3.73c1.5-5.81,5.65-7.25,5.65-7.25-1.19,2.75-1.78,5.08-1.92,7.25Zm-15.18,0h6.71c.88,4.93-2.98,7.26-2.98,7.26,0,0-.45-4.51-3.43-6.97q-.14-.14-.3-.29h0Zm11.44,0c-.59,2.31-.73,5.36,0,9.42,0,0-6.25,0-7.58,3.19-1.19,3.33,1.48,6.1,1.48,6.1,0,0-2.23,4.49,1.8,5.93,4,1.3,5.93-3.62,5.93-3.62,0,0-6.99,1.3-5.04-4.51,1.78-5.65,6.83-.72,8.46,2.19,1.19,2.3,1.79,8.11-1.93,15.51h3.71c4.61-10.29,2.97-18.57,.75-21.75-1.94-2.9-4.31-6.96-3.86-12.46h-3.73Zm-6.08,34.21H4.91c-.45-1.74-.76-4.21-.45-5.95,.6-3.33,4.02-7.54,4.02-7.54,0,0,0,.15,.89,2.62,.73,2.47,.59,2.47,2.08,4.78,1.33,1.74,1.05,5.08,.9,6.1Zm-7.43,0h7.43c0,.29,0,.44,0,.44,5.5,3.04-.44,6.81-.44,6.81-1.94-1.88-2.83-1.45-4.47,.14-1.64,1.59,1.93,5.08,1.93,5.08,0,0-.29,1.45-1.93,1-1.63-.28-2.37-4.63-2.37-4.63-3.87-2.04,.59-6.24,.59-6.24,0,0-.3-1.01-.74-2.6h0Zm16.64,0c-.74,1.73-1.79,3.46-3.13,5.36-7.12,9.86-12.93,15.94-11.29,23.19,.3,1.59,.89,3.19,1.48,4.49h2.08c-.6-1.59-.6-3.48-.3-5.21,.45-1.74,1.63-2.74,2.52-3.62,2.39-2.47,5.5-6.52,9.52-5.08,4,1.45,1.79,5.96,1.79,5.96,0,0,6.09-3.08,1.78-9.15-.89-1.3-3.26-1.6-4.46-1.74-5.35-.73-12.19,8.41-11.9,12.03,0,0-1.77-1.88,9.66-16.52,2.67-3.33,4.61-6.67,5.94-9.71h-3.71Zm4.31,33.04h-4.76c-.29-3.04-2.07-5.51-2.07-5.51,0,0-.02-.29,2.97,.15,1.93,.29,3.57,2.46,3.86,5.36h0Zm-6.99,0h-3.27c0-.72,0-1.3,0-1.3h2.23s.59,.58,1.04,1.3h0Zm-11.15,0h-1.94c-.87-3.18-.88-5.94-.88-5.94h1.19s.44,1.45,.44,1.45c.15,1.59,.6,3.19,1.19,4.49Zm-1.94,0h1.94c2.53,6.68,8.17,9.57,11.59,5.5,1.63-1.74,1.94-3.76,1.78-5.5h4.76c.15,1.88-.3,3.77-1.63,5.81-.59,.87-1.34,1.58-2.08,2.17H11.9c-.45-.3-1.05-.59-1.64-1.02-2.37-1.74-3.72-4.49-4.47-6.96h0Zm2.83,0c2.08,4.79,5.65,7.68,8.92,5.08,2.68-1.88,2.08-3.91,1.33-5.08h-3.27c0,1.46-.45,3.48-2.83,2.47-1.04-.43-1.62-1.3-2.08-2.47h-2.08Zm18.73,7.98c-.29-2.17-1.19-2.03-2.97-.3-.14,.15-.3,.29-.45,.29h3.42Zm30.17,25.23s-5.06-.72-3.72,2.89c.45,1.01,1.19,1.6,2.39,2.04h-3.42c-2.37-2.04-3.43-4.51-1.64-6.97,3.26-4.35,6.39-.14,6.39-.14v2.18h0Zm4.61,4.93c1.19-.43,2.09-1.45,2.83-2.17,2.38-2.47,6.39-5.51,5.05-9.71-1.49-4.06-5.95-1.75-5.95-1.75,0,0,3.12-6.23,8.91-1.87,1.34,1.01,1.64,3.33,1.79,4.64,.59,3.91-4.3,8.85-8.31,10.87h-4.32Zm4.47,0h6.39c3.12-2.03,6.54-4.78,10.55-7.68,9.66-7.25,17.68-6.81,20.51-5.22,2.97,1.59,7.73,6.82,2.08,8.71-5.64,1.74-4.45-5.22-4.45-5.22,0,0-4.9,1.87-3.44,5.94,1.35,4.07,5.81,1.88,5.81,1.88,0,0,1.33,1.31,3.13,1.6h2.08c.29,0,.44-.15,.74-.15,3.26-1.3,3.26-7.53,3.26-7.53,13.68,2.31,16.36-5.8,16.36-5.8-9.52,4.07-15.47,.87-19.48-2.03-4.02-2.9-16.35-4.93-30.92,6.66-6.25,5.08-10.1,7.69-12.63,8.85h0Zm-54.69-30.15h10.26c-2.83,2.31-6.4,2.32-10.26,0h0Zm12.03,0c-2.37,1.89-5.94,3.2-8.32,2.9-2.38-.14-6.83,.43-10.7,6.38-3.72,5.95-3.72,7.82-3.72,7.82l.59,3.48s4.76,7.7,10.85,7.11c6.1-.57,8.03-5.08,6.85-7.97-1.2-2.89-4.02-3.91-4.02-3.91,0,0,2.83,.29,4.02,.43,1.18,.29,4,.86,6.09-.14,0,0,1.04,3.04,1.04,5.65,0,2.76-.44,4.35-.44,4.35,0,0-2.83-2.47-4.47-2.47s-6.84,4.65-6.99,6.54h5.5c.74-1.31,2.53-1.75,3.26-1.03,.3,.3,.45,.59,.6,1.02h3.86c2.22-2.76,2.37-3.92,1.64-7.68-.75-4.2-1.05-5.8,.44-7.69,1.34-1.73,4.01-6.67,4.01-6.67l-5.5,4.07s-1.78,1.16-4.46,.88c-2.53-.44-12.19-3.19-12.49,5.06,0,0,5.21,.15,4.61,2.62-.6,2.45-6.84,3.04-10.26,.28l-3.42-2.9s1.04-5.5,6.25-8.98c5.2-3.47,8.32-2.76,7.73-1.3-.59,1.45-.9,3.77,3.56,1.88,4.47-1.88,7.28-4.49,7.28-8.26,0-.44,0-1.01,0-1.45h-3.42Zm262.51,30.15h-2.39c2.83-2.76,3.43-6.23,.6-8.85-4.91-4.21-11,.43-11,.43,0,0-.15,0,.15-3.05,.44-3.04,6.1-5.65,10.99-2.18,4.92,3.33,5.36,8.27,1.65,13.64h0Zm-3.86,0c2.52-2.03,3.56-4.5,1.62-6.97-3.26-4.35-6.24-.14-6.24-.14v2.18s5.05-.72,3.57,2.89c-.3,1.01-1.19,1.6-2.23,2.03h3.28Zm-9.37,0h-4.47c-4.01-2.03-8.76-6.97-8.32-10.88,.14-1.29,.45-3.62,1.78-4.63,5.96-4.35,8.93,1.87,8.93,1.87,0,0-4.46-2.31-5.81,1.75-1.48,4.2,2.53,7.25,5.06,9.71,.74,.72,1.63,1.74,2.83,2.17h0Zm-4.61,0c-2.38-1.16-6.4-3.78-12.79-8.85-14.57-11.59-27.04-9.56-31.21-6.66-4.01,2.89-9.95,6.09-19.49,2.03,0,0,2.69,8.12,16.52,5.8,0,0,0,6.23,3.26,7.53,.3,0,.44,.16,.73,.15h2.09c1.78-.29,3.12-1.6,3.12-1.6,0,0,4.45,2.18,5.79-1.88,1.48-4.07-3.42-5.94-3.42-5.94,0,0,1.19,6.95-4.47,5.21-5.64-1.89-.89-7.1,2.08-8.69,2.82-1.59,11-2.03,20.81,5.22,4,2.9,7.43,5.65,10.55,7.68h6.4Zm-16.05,0h-13.54c.3-.15,.75-.43,1.19-.72,2.22-1.74,6.53-.88,6.53-.88,2.98-5.5,6.7,.44,6.7,.44-.45,.43-.74,.87-.89,1.16h0Zm-33.15,0h-17.68c.59-3.19-3.86-3.92-3.86-3.92l1.92-1.45c6.39-2.19,7.13,4.93,7.13,4.93,8.62-6.23,12.48,.43,12.48,.43h0Zm-38.64,0c1.19-1.02,2.68-2.03,4.16-3.19,2.23-1.89,5.2-4.36,6.99-5.22,6.23-2.9,10.69-.44,10.69-.44,0,0-2.82-3.62-7.13-4.79-4.32-1.29-11.44,3.2-11.44,3.2-2.67-5.5-7.28-6.52-10.26-5.37-2.83,1.31-3.87,4.5-3.87,4.5,0,0,2.24-1.16,5.51-1.6,3.26-.43,3.26,4.35,2.53,7.98-.6,2.6-1.8,3.62-3.42,4.93h6.24Zm-20.96,0h-6.24c-1.19-1.02-2.53-2.03-4.01-3.19-2.22-1.89-5.2-4.36-6.98-5.22-6.25-2.9-10.55-.43-10.55-.43,0,0,2.82-3.62,7.13-4.79,4.15-1.29,11.3,3.2,11.3,3.2,2.52-5.5,7.12-6.52,10.1-5.37,2.82,1.3,3.71,4.49,3.71,4.49,0,0-2.22-1.15-5.35-1.59-3.26-.43-3.26,4.35-2.53,7.97,.59,2.6,1.8,3.63,3.42,4.93h0Zm-26.75,0h-17.84s3.86-6.67,12.49-.43c0,0,.89-7.11,7.14-4.93l2.08,1.45s-4.46,.72-3.86,3.92h0Zm-37.01,0h-13.38c-.29-.3-.59-.74-.89-1.17,0,0,3.57-5.94,6.55-.43,0,0,4.31-.87,6.53,.88,.44,.29,.89,.57,1.19,.73h0Zm-44.59,0c-2.83-2.76-3.42-6.24-.59-8.85,4.75-4.21,10.85,.43,10.85,.43,0,0,.14,0-.16-3.05-.44-3.04-6.09-5.65-10.99-2.18-4.61,3.33-5.21,8.27-1.48,13.64h2.37Zm-10.71,0h-4.15c.3-.72,.59-1.45,.44-2.18-.15-4.49-4.61-.72-4.61-.72-1.03-7.11,3.73-7.98,3.73-7.98,4.15-7.97,11.29-4.05,11.29-4.05,0,0-.89,.58-3.86,2.61-3.12,2.17-2.08,5.8-2.38,10.72-.15,.57-.3,1.02-.45,1.6Zm15.47,0c1.48,.58,3.4,.71,5.2,.28,.16,0,.45-.15,.73-.29h4.32c-1.34,.72-2.69,1.16-3.57,1,0,0,.59,.59,3.72-1h6.39c-4.3,3.04-8.17,4.64-12.34,3.76-3.12-.72-5.95-2.16-7.87-3.76h3.42Zm53.06,0c-.74,.14-1.49,.14-2.08,0h2.08Zm-94.54,0h5.5c-.3,.43-.3,1-.3,1.58,.14,2.76,2.83,6.81,2.83,6.81,0,0-3.72,1.45-4.91,.15-1.19-1.16-3.43-6.67-3.12-8.55h0Zm9.37,0h3.86c-.3,.29-.45,.44-.6,.59-2.22,2.6-2.68,.86-3.26-.59h0Zm12.48,0c-1.79,3.62-7.28,6.82-9.07,8.56l1.63,.72,2.09-.44s7.42-4.35,9.5-8.84h-4.15Zm12.49,0c.14,.14,.3,.27,.29,.43,4.02,5.5,12.78,5.5,12.78,5.5v-1.16l-1.48-.43c-4.01-.59-7.13-2.32-9.21-4.35h-2.37Zm33.58,0h13.38c1.19,.86,1.48,.86,3.42,1.44,2.38,.87,2.67,.87,2.67,.87,0,0-4.31,3.49-7.43,4.06-3.26,.59-8.62-1.31-8.62-1.31,0,0-4.01,4.64-5.95,.74,0,0-4.29-.88-4.75-2.47-.3-1.74,1.05-1.89,1.05-1.89,0,0,3.4,3.49,5.04,1.89,1.33-1.31,1.8-2.03,1.19-3.33h0Zm32.7,0h17.69c.59,3.33,4.46,4.35,7.58,3.33,3.27-1.02,4.9-2.47,4.9-2.47l1.64,1.89-9.52,6.95s-2.22,.15-4.61,.15c-2.54,0-7.28-1.02-7.28-1.02,0,0-.3-1.88-3.72-5.37-2.23-2.76-6.09-3.33-6.69-3.46h0Zm38.2,0h6.24c.75,.59,1.63,1.31,2.53,2.02,2.23,2.17,7.43,2.17,9.65,0,.9-.72,1.8-1.45,2.54-2.02h6.24c-7.88,6.52-9.36,7.97-9.36,7.97-1.05,2.32-1.64,2.76-2.08,2.9l-3.73-.43-2.67-2.46s-1.63-1.45-9.37-7.98h0Zm48.17,0h17.68c-.74,.14-4.6,.71-6.83,3.46-3.42,3.49-3.57,5.37-3.57,5.37,0,0-4.91,1.02-7.28,1.03-2.53,0-4.76-.16-4.76-.16l-9.37-6.95,1.5-1.89s1.62,1.45,4.9,2.47c3.26,1.02,7.13,0,7.73-3.33h0Zm23.92,0h2.09c-.75,.14-1.34,.14-2.09,0h0Zm13.38,0h13.54c-.75,1.31-.16,2.02,1.03,3.33,1.64,1.59,5.2-1.89,5.2-1.89,0,0,1.34,.15,1.05,1.89-.45,1.59-4.75,2.47-4.75,2.47-2.08,3.91-6.1-.74-6.1-.74,0,0-5.34,1.9-8.62,1.31-3.28-.57-7.58-4.06-7.58-4.06,0,0,.3,0,2.68-.87,1.94-.58,2.37-.58,3.56-1.45h0Zm23.19,0h6.4c3.26,1.59,3.86,1,3.86,1-1.03,.15-2.23-.29-3.72-1h4.47c.3,.13,.45,.28,.74,.28,1.79,.43,3.72,.29,5.35-.29h3.28c-1.94,1.6-4.76,3.05-7.88,3.76-4.16,.88-8.03-.72-12.49-3.76h0Zm21.85,0c-2.08,2.02-5.35,3.76-9.36,4.35l-1.48,.43v1.16s8.77,0,12.93-5.5c0-.15,.16-.3,.3-.43h-2.39Z"/>
    <g>
      <rect class="cls-1" x="32" y="32" width="516" height="756"/>
      <path class="cls-2" d="M546,34V786H34V34H546m4-4H30V790H550V30h0Z"/>
    </g>
  </g>
  <g class="cls-3">
    <path class="cls-2" d="M420.89,282.43v-10.93c.01-9.93,.03-19.86-.03-29.79-.06-12.38-8.51-20.88-21.03-21.15l-11.5-.07c-35.61-.71-63.92-12.42-86.59-35.79-5.14-5.32-10.42-7.92-16.13-7.97-8.67-.09-14.72,6.01-16.73,8.03-14.06,14.05-28.93,23.54-45.44,29.01-14,4.63-29.53,6.81-48.69,6.81-.92,0-1.69-.01-2.78-.01-13.46,0-21.69,8.15-22.03,21.87-.16,6.96-.31,13.93-.34,20.88l-.1,12.32c-.25,23.97-.5,48.77,3.75,73.48,6.4,37.34,21.64,66.78,46.55,89.98,20.4,19,45.88,33.39,77.89,44.01,2.42,.81,4.95,1.14,7.41,1.14h0c4.14,0,8.09-.94,10.99-2.12l4.18-1.69c11.32-4.58,23.03-9.31,34.19-15.28,43.39-23.23,70.64-58.63,81.01-105.21,6.24-28.07,6.18-56.15,5.44-77.51Zm-27.41,72.63c-8.99,40.45-31.78,69.97-69.65,90.26-10.11,5.4-20.74,9.7-32.01,14.25l-4.22,1.72c-1.05,.42-2.45,.53-2.84,.46-28.87-9.57-51.65-22.37-69.64-39.11-21.17-19.72-34.16-45.01-39.7-77.32-3.9-22.71-3.68-45.41-3.43-69.44l.1-12.45c.03-6.79,.18-13.58,.34-20.35h0c22.87,.24,41.13-2.34,58.07-7.94,19.94-6.59,37.69-17.86,54.29-34.45,.2-.2,.39-.39,.56-.55,.07,.07,.15,.15,.24,.23,26.62,27.46,61.04,41.81,102.3,42.63l10.47,.11c.06,9.46,.04,18.91,.03,28.37v11.56c.72,20.06,.81,46.36-4.91,72.03Z"/>
    <path class="cls-2" d="M321.85,351.31c6.32-9.42,10.02-20.77,10.02-32.97,0-32.6-26.4-59.12-58.83-59.12s-58.83,26.52-58.83,59.12,26.4,59.12,58.83,59.12c12.2,0,23.55-3.76,32.96-10.18l23.74,23.74c2.19,2.2,5.07,3.3,7.95,3.3h0c2.88,0,5.76-1.1,7.95-3.3,4.39-4.39,4.39-11.51,0-15.91l-23.81-23.81Zm-85.13-32.96c0-20.19,16.3-36.62,36.33-36.62s36.33,16.43,36.33,36.62-16.31,36.62-36.33,36.62-36.33-16.43-36.33-36.62Z"/>
  </g>
</svg>